<svg width="305" height="221" viewBox="0 0 305 221" fill="none" xmlns="http://www.w3.org/2000/svg">
<g clip-path="url(#clip0_7_120)">
<path d="M177.662 38.9597C183.378 38.9597 188.012 34.3431 188.012 28.6482C188.012 22.9532 183.378 18.3366 177.662 18.3366C171.946 18.3366 167.312 22.9532 167.312 28.6482C167.312 34.3431 171.946 38.9597 177.662 38.9597Z" fill="#F2F2F2"/>
<path d="M257.952 191.995C273.336 180.321 280.684 160.704 276.084 141.99C275.97 141.525 275.849 141.061 275.722 140.598C272.672 129.49 265.127 118.933 254.131 115.384C244.897 112.403 234.819 114.695 225.186 113.51C206.277 111.183 191.616 95.9407 181.301 79.9813C170.986 64.0218 163.058 46.1575 149.352 32.9727C126.758 11.2397 89.903 6.56059 61.8906 20.7071C33.8782 34.8537 16.0345 66.239 16.7955 97.5184C17.5565 128.798 36.1953 158.703 63.2634 174.57C73.2071 180.399 84.708 184.528 96.1536 183.083C106.085 181.829 115.109 176.513 124.993 174.934C140.534 172.453 155.976 179.453 169.417 187.611C182.859 195.768 195.843 205.437 211.117 209.219C225.949 212.891 244.323 202.336 257.952 191.995Z" fill="#F2F2F2"/>
<path d="M235.848 21.364C235.511 21.14 235.17 20.9276 234.832 20.7114C225.084 14.4998 214.635 9.45358 203.701 5.67699L201.166 40.519H185.095V0.59087C184.083 0.382327 183.064 0.185371 182.044 0V40.519H162.945C152.431 40.519 142.348 36.3579 134.913 28.951C127.478 21.5442 123.302 11.4983 123.302 1.02345V1.02341C122.278 1.24354 121.263 1.47912 120.247 1.73014V40.519H104.691L102.276 7.29513C91.0405 11.5881 80.3737 17.2336 70.5133 24.106C70.3428 24.2218 70.1722 24.3415 70.0055 24.4574C69.1489 25.056 68.3038 25.6662 67.4626 26.2841V159.207H113.308L112.498 148.026L108.04 86.6417H197.813L193.355 148.026L192.545 159.207H237.883V22.708C237.209 22.2523 236.53 21.8043 235.848 21.364ZM120.247 76.5042H107.304L104.912 43.5622H120.247V76.5042ZM182.044 76.5042H160.305V75.8515C160.305 75.5378 160.243 75.2271 160.123 74.9373C160.002 74.6475 159.825 74.3842 159.602 74.1625C159.38 73.9408 159.115 73.7651 158.824 73.6454C158.533 73.5257 158.221 73.4643 157.906 73.4649H148.455C148.141 73.4647 147.829 73.5264 147.539 73.6463C147.248 73.7662 146.984 73.942 146.761 74.1636C146.539 74.3853 146.362 74.6484 146.242 74.938C146.122 75.2276 146.06 75.538 146.06 75.8515V76.5042H123.302V43.5622H182.044V76.5042ZM185.095 76.5042V43.5622H200.945L198.554 76.5042H185.095Z" fill="#0D0D0D"/>
<path d="M0 167.719C3.36749 171.694 7.00982 175.43 10.9003 178.899L294.1 179.285C297.99 175.816 301.633 172.08 305 168.105L0 167.719Z" fill="#3F3D56"/>
<path d="M192.047 131.919V165.017C192.047 165.439 192.215 165.843 192.515 166.141C192.814 166.44 193.22 166.607 193.643 166.608H242.875C243.298 166.607 243.704 166.44 244.004 166.141C244.303 165.843 244.471 165.439 244.472 165.017V131.919C244.471 131.498 244.302 131.094 244.003 130.796C243.703 130.498 243.298 130.331 242.875 130.33H193.643C193.22 130.331 192.815 130.498 192.515 130.796C192.216 131.094 192.048 131.498 192.047 131.919Z" fill="#3F3D56"/>
<path d="M193.202 132.331V164.609C193.202 164.834 193.292 165.05 193.452 165.209C193.612 165.369 193.829 165.458 194.055 165.459H242.465C242.691 165.458 242.908 165.369 243.068 165.209C243.228 165.05 243.318 164.834 243.318 164.609V132.331C243.318 132.105 243.229 131.889 243.069 131.729C242.909 131.569 242.692 131.479 242.465 131.479H194.055C193.828 131.479 193.611 131.569 193.451 131.729C193.291 131.889 193.202 132.105 193.202 132.331Z" fill="#F5C0AE"/>
<path d="M191.017 171.472C191.107 171.585 191.222 171.676 191.352 171.738C191.483 171.8 191.626 171.832 191.77 171.831H244.486C244.63 171.831 244.772 171.799 244.902 171.737C245.032 171.675 245.147 171.585 245.238 171.473C245.329 171.362 245.393 171.232 245.427 171.092C245.461 170.952 245.463 170.807 245.434 170.666L244.616 166.794C244.582 166.636 244.509 166.489 244.403 166.367C244.298 166.244 244.163 166.15 244.012 166.092C243.902 166.049 243.785 166.027 243.667 166.027H192.585C192.468 166.027 192.351 166.049 192.241 166.092C192.09 166.15 191.955 166.244 191.85 166.367C191.744 166.489 191.671 166.636 191.637 166.794L190.819 170.666C190.79 170.807 190.792 170.952 190.827 171.092C190.861 171.231 190.926 171.361 191.017 171.472Z" fill="#2F2E41"/>
<path d="M241.859 167.695H243.104C243.208 167.695 243.293 167.611 243.293 167.507V166.913C243.293 166.809 243.208 166.725 243.104 166.725H241.859C241.754 166.725 241.669 166.809 241.669 166.913V167.507C241.669 167.611 241.754 167.695 241.859 167.695Z" fill="#3F3D56"/>
<path d="M238.612 167.695H239.857C239.961 167.695 240.046 167.611 240.046 167.507V166.913C240.046 166.809 239.961 166.725 239.857 166.725H238.612C238.507 166.725 238.422 166.809 238.422 166.913V167.507C238.422 167.611 238.507 167.695 238.612 167.695Z" fill="#3F3D56"/>
<path d="M235.364 167.695H236.609C236.714 167.695 236.799 167.611 236.799 167.507V166.913C236.799 166.809 236.714 166.725 236.609 166.725H235.364C235.26 166.725 235.175 166.809 235.175 166.913V167.507C235.175 167.611 235.26 167.695 235.364 167.695Z" fill="#3F3D56"/>
<path d="M232.117 167.695H233.362C233.467 167.695 233.551 167.611 233.551 167.507V166.913C233.551 166.809 233.467 166.725 233.362 166.725H232.117C232.012 166.725 231.928 166.809 231.928 166.913V167.507C231.928 167.611 232.012 167.695 232.117 167.695Z" fill="#3F3D56"/>
<path d="M228.87 167.695H230.115C230.219 167.695 230.304 167.611 230.304 167.507V166.913C230.304 166.809 230.219 166.725 230.115 166.725H228.87C228.765 166.725 228.681 166.809 228.681 166.913V167.507C228.681 167.611 228.765 167.695 228.87 167.695Z" fill="#3F3D56"/>
<path d="M225.623 167.695H226.868C226.972 167.695 227.057 167.611 227.057 167.507V166.913C227.057 166.809 226.972 166.725 226.868 166.725H225.623C225.518 166.725 225.433 166.809 225.433 166.913V167.507C225.433 167.611 225.518 167.695 225.623 167.695Z" fill="#3F3D56"/>
<path d="M222.375 167.695H223.62C223.725 167.695 223.81 167.611 223.81 167.507V166.913C223.81 166.809 223.725 166.725 223.62 166.725H222.375C222.271 166.725 222.186 166.809 222.186 166.913V167.507C222.186 167.611 222.271 167.695 222.375 167.695Z" fill="#3F3D56"/>
<path d="M219.128 167.695H220.373C220.478 167.695 220.562 167.611 220.562 167.507V166.913C220.562 166.809 220.478 166.725 220.373 166.725H219.128C219.024 166.725 218.939 166.809 218.939 166.913V167.507C218.939 167.611 219.024 167.695 219.128 167.695Z" fill="#3F3D56"/>
<path d="M215.881 167.695H217.126C217.231 167.695 217.315 167.611 217.315 167.507V166.913C217.315 166.809 217.231 166.725 217.126 166.725H215.881C215.776 166.725 215.692 166.809 215.692 166.913V167.507C215.692 167.611 215.776 167.695 215.881 167.695Z" fill="#3F3D56"/>
<path d="M212.634 167.695H213.879C213.983 167.695 214.068 167.611 214.068 167.507V166.913C214.068 166.809 213.983 166.725 213.879 166.725H212.634C212.529 166.725 212.444 166.809 212.444 166.913V167.507C212.444 167.611 212.529 167.695 212.634 167.695Z" fill="#3F3D56"/>
<path d="M209.386 167.695H210.632C210.736 167.695 210.821 167.611 210.821 167.507V166.913C210.821 166.809 210.736 166.725 210.632 166.725H209.386C209.282 166.725 209.197 166.809 209.197 166.913V167.507C209.197 167.611 209.282 167.695 209.386 167.695Z" fill="#3F3D56"/>
<path d="M206.139 167.695H207.384C207.489 167.695 207.574 167.611 207.574 167.507V166.913C207.574 166.809 207.489 166.725 207.384 166.725H206.139C206.035 166.725 205.95 166.809 205.95 166.913V167.507C205.95 167.611 206.035 167.695 206.139 167.695Z" fill="#3F3D56"/>
<path d="M202.892 167.695H204.137C204.242 167.695 204.326 167.611 204.326 167.507V166.913C204.326 166.809 204.242 166.725 204.137 166.725H202.892C202.788 166.725 202.703 166.809 202.703 166.913V167.507C202.703 167.611 202.788 167.695 202.892 167.695Z" fill="#3F3D56"/>
<path d="M199.645 167.695H200.89C200.994 167.695 201.079 167.611 201.079 167.507V166.913C201.079 166.809 200.994 166.725 200.89 166.725H199.645C199.54 166.725 199.456 166.809 199.456 166.913V167.507C199.456 167.611 199.54 167.695 199.645 167.695Z" fill="#3F3D56"/>
<path d="M196.398 167.695H197.643C197.747 167.695 197.832 167.611 197.832 167.507V166.913C197.832 166.809 197.747 166.725 197.643 166.725H196.398C196.293 166.725 196.208 166.809 196.208 166.913V167.507C196.208 167.611 196.293 167.695 196.398 167.695Z" fill="#3F3D56"/>
<path d="M193.15 167.695H194.395C194.5 167.695 194.585 167.611 194.585 167.507V166.913C194.585 166.809 194.5 166.725 194.395 166.725H193.15C193.046 166.725 192.961 166.809 192.961 166.913V167.507C192.961 167.611 193.046 167.695 193.15 167.695Z" fill="#3F3D56"/>
<path d="M241.897 169.313H243.142C243.247 169.313 243.331 169.228 243.331 169.124V168.531C243.331 168.427 243.247 168.342 243.142 168.342H241.897C241.793 168.342 241.708 168.427 241.708 168.531V169.124C241.708 169.228 241.793 169.313 241.897 169.313Z" fill="#3F3D56"/>
<path d="M238.65 169.313H239.895C240 169.313 240.084 169.228 240.084 169.124V168.531C240.084 168.427 240 168.342 239.895 168.342H238.65C238.545 168.342 238.461 168.427 238.461 168.531V169.124C238.461 169.228 238.545 169.313 238.65 169.313Z" fill="#3F3D56"/>
<path d="M235.403 169.313H236.648C236.752 169.313 236.837 169.228 236.837 169.124V168.531C236.837 168.427 236.752 168.342 236.648 168.342H235.403C235.298 168.342 235.213 168.427 235.213 168.531V169.124C235.213 169.228 235.298 169.313 235.403 169.313Z" fill="#3F3D56"/>
<path d="M232.155 169.313H233.4C233.505 169.313 233.59 169.228 233.59 169.124V168.531C233.59 168.427 233.505 168.342 233.4 168.342H232.155C232.051 168.342 231.966 168.427 231.966 168.531V169.124C231.966 169.228 232.051 169.313 232.155 169.313Z" fill="#3F3D56"/>
<path d="M228.908 169.313H230.153C230.258 169.313 230.343 169.228 230.343 169.124V168.531C230.343 168.427 230.258 168.342 230.153 168.342H228.908C228.804 168.342 228.719 168.427 228.719 168.531V169.124C228.719 169.228 228.804 169.313 228.908 169.313Z" fill="#3F3D56"/>
<path d="M225.661 169.313H226.906C227.011 169.313 227.095 169.228 227.095 169.124V168.531C227.095 168.427 227.011 168.342 226.906 168.342H225.661C225.556 168.342 225.472 168.427 225.472 168.531V169.124C225.472 169.228 225.556 169.313 225.661 169.313Z" fill="#3F3D56"/>
<path d="M222.414 169.313H223.659C223.763 169.313 223.848 169.228 223.848 169.124V168.531C223.848 168.427 223.763 168.342 223.659 168.342H222.414C222.309 168.342 222.225 168.427 222.225 168.531V169.124C222.225 169.228 222.309 169.313 222.414 169.313Z" fill="#3F3D56"/>
<path d="M219.166 169.313H220.412C220.516 169.313 220.601 169.228 220.601 169.124V168.531C220.601 168.427 220.516 168.342 220.412 168.342H219.166C219.062 168.342 218.977 168.427 218.977 168.531V169.124C218.977 169.228 219.062 169.313 219.166 169.313Z" fill="#3F3D56"/>
<path d="M215.919 169.313H217.164C217.269 169.313 217.354 169.228 217.354 169.124V168.531C217.354 168.427 217.269 168.342 217.164 168.342H215.919C215.815 168.342 215.73 168.427 215.73 168.531V169.124C215.73 169.228 215.815 169.313 215.919 169.313Z" fill="#3F3D56"/>
<path d="M212.672 169.313H213.917C214.022 169.313 214.106 169.228 214.106 169.124V168.531C214.106 168.427 214.022 168.342 213.917 168.342H212.672C212.568 168.342 212.483 168.427 212.483 168.531V169.124C212.483 169.228 212.568 169.313 212.672 169.313Z" fill="#3F3D56"/>
<path d="M209.425 169.313H210.67C210.774 169.313 210.859 169.228 210.859 169.124V168.531C210.859 168.427 210.774 168.342 210.67 168.342H209.425C209.32 168.342 209.236 168.427 209.236 168.531V169.124C209.236 169.228 209.32 169.313 209.425 169.313Z" fill="#3F3D56"/>
<path d="M206.178 169.313H207.423C207.527 169.313 207.612 169.228 207.612 169.124V168.531C207.612 168.427 207.527 168.342 207.423 168.342H206.178C206.073 168.342 205.988 168.427 205.988 168.531V169.124C205.988 169.228 206.073 169.313 206.178 169.313Z" fill="#3F3D56"/>
<path d="M202.93 169.313H204.176C204.28 169.313 204.365 169.228 204.365 169.124V168.531C204.365 168.427 204.28 168.342 204.176 168.342H202.93C202.826 168.342 202.741 168.427 202.741 168.531V169.124C202.741 169.228 202.826 169.313 202.93 169.313Z" fill="#3F3D56"/>
<path d="M199.683 169.313H200.928C201.033 169.313 201.118 169.228 201.118 169.124V168.531C201.118 168.427 201.033 168.342 200.928 168.342H199.683C199.579 168.342 199.494 168.427 199.494 168.531V169.124C199.494 169.228 199.579 169.313 199.683 169.313Z" fill="#3F3D56"/>
<path d="M196.436 169.313H197.681C197.786 169.313 197.87 169.228 197.87 169.124V168.531C197.87 168.427 197.786 168.342 197.681 168.342H196.436C196.331 168.342 196.247 168.427 196.247 168.531V169.124C196.247 169.228 196.331 169.313 196.436 169.313Z" fill="#3F3D56"/>
<path d="M193.189 169.313H194.434C194.538 169.313 194.623 169.228 194.623 169.124V168.531C194.623 168.427 194.538 168.342 194.434 168.342H193.189C193.084 168.342 192.999 168.427 192.999 168.531V169.124C192.999 169.228 193.084 169.313 193.189 169.313Z" fill="#3F3D56"/>
<path d="M214.945 171.254H227.556C227.66 171.254 227.745 171.169 227.745 171.065V170.472C227.745 170.368 227.66 170.283 227.556 170.283H214.945C214.841 170.283 214.756 170.368 214.756 170.472V171.065C214.756 171.169 214.841 171.254 214.945 171.254Z" fill="#3F3D56"/>
<path d="M201.585 138.541H200.482C200.148 138.541 199.877 138.81 199.877 139.143C199.877 139.476 200.148 139.746 200.482 139.746H201.585C201.919 139.746 202.19 139.476 202.19 139.143C202.19 138.81 201.919 138.541 201.585 138.541Z" fill="white"/>
<path d="M214.192 138.541H213.09C212.755 138.541 212.484 138.81 212.484 139.143C212.484 139.476 212.755 139.746 213.09 139.746H214.192C214.526 139.746 214.797 139.476 214.797 139.143C214.797 138.81 214.526 138.541 214.192 138.541Z" fill="white"/>
<path d="M217.764 138.541H216.662C216.327 138.541 216.056 138.81 216.056 139.143C216.056 139.476 216.327 139.746 216.662 139.746H217.764C218.098 139.746 218.369 139.476 218.369 139.143C218.369 138.81 218.098 138.541 217.764 138.541Z" fill="white"/>
<path d="M210.763 138.44H203.912C203.577 138.44 203.307 138.71 203.307 139.043C203.307 139.376 203.577 139.646 203.912 139.646H210.763C211.097 139.646 211.368 139.376 211.368 139.043C211.368 138.71 211.097 138.44 210.763 138.44Z" fill="white"/>
<path d="M227.572 138.44H220.721C220.387 138.44 220.116 138.71 220.116 139.043C220.116 139.376 220.387 139.646 220.721 139.646H227.572C227.906 139.646 228.177 139.376 228.177 139.043C228.177 138.71 227.906 138.44 227.572 138.44Z" fill="white"/>
<path d="M204.947 141.262H203.844C203.51 141.262 203.239 141.532 203.239 141.865C203.239 142.198 203.51 142.468 203.844 142.468H204.947C205.281 142.468 205.552 142.198 205.552 141.865C205.552 141.532 205.281 141.262 204.947 141.262Z" fill="white"/>
<path d="M217.554 141.262H216.451C216.117 141.262 215.846 141.532 215.846 141.865C215.846 142.198 216.117 142.468 216.451 142.468H217.554C217.888 142.468 218.159 142.198 218.159 141.865C218.159 141.532 217.888 141.262 217.554 141.262Z" fill="white"/>
<path d="M221.126 141.262H220.023C219.689 141.262 219.418 141.532 219.418 141.865C219.418 142.198 219.689 142.468 220.023 142.468H221.126C221.46 142.468 221.731 142.198 221.731 141.865C221.731 141.532 221.46 141.262 221.126 141.262Z" fill="white"/>
<path d="M214.125 141.161H207.274C206.939 141.161 206.668 141.431 206.668 141.764C206.668 142.097 206.939 142.367 207.274 142.367H214.125C214.459 142.367 214.73 142.097 214.73 141.764C214.73 141.431 214.459 141.161 214.125 141.161Z" fill="white"/>
<path d="M230.934 141.161H224.083C223.749 141.161 223.478 141.431 223.478 141.764C223.478 142.097 223.749 142.367 224.083 142.367H230.934C231.268 142.367 231.539 142.097 231.539 141.764C231.539 141.431 231.268 141.161 230.934 141.161Z" fill="white"/>
<path d="M208.309 143.983H207.206C206.872 143.983 206.601 144.253 206.601 144.586C206.601 144.919 206.872 145.189 207.206 145.189H208.309C208.643 145.189 208.914 144.919 208.914 144.586C208.914 144.253 208.643 143.983 208.309 143.983Z" fill="white"/>
<path d="M220.916 143.983H219.813C219.479 143.983 219.208 144.253 219.208 144.586C219.208 144.919 219.479 145.189 219.813 145.189H220.916C221.25 145.189 221.521 144.919 221.521 144.586C221.521 144.253 221.25 143.983 220.916 143.983Z" fill="white"/>
<path d="M224.488 143.983H223.385C223.051 143.983 222.78 144.253 222.78 144.586C222.78 144.919 223.051 145.189 223.385 145.189H224.488C224.822 145.189 225.093 144.919 225.093 144.586C225.093 144.253 224.822 143.983 224.488 143.983Z" fill="white"/>
<path d="M217.486 143.883H210.635C210.301 143.883 210.03 144.153 210.03 144.486C210.03 144.819 210.301 145.088 210.635 145.088H217.486C217.821 145.088 218.092 144.819 218.092 144.486C218.092 144.153 217.821 143.883 217.486 143.883Z" fill="white"/>
<path d="M234.296 143.883H227.445C227.111 143.883 226.84 144.153 226.84 144.486C226.84 144.819 227.111 145.088 227.445 145.088H234.296C234.63 145.088 234.901 144.819 234.901 144.486C234.901 144.153 234.63 143.883 234.296 143.883Z" fill="white"/>
<path d="M211.67 146.705H210.568C210.234 146.705 209.963 146.974 209.963 147.307C209.963 147.64 210.234 147.91 210.568 147.91H211.67C212.005 147.91 212.276 147.64 212.276 147.307C212.276 146.974 212.005 146.705 211.67 146.705Z" fill="white"/>
<path d="M224.278 146.705H223.175C222.841 146.705 222.57 146.974 222.57 147.307C222.57 147.64 222.841 147.91 223.175 147.91H224.278C224.612 147.91 224.883 147.64 224.883 147.307C224.883 146.974 224.612 146.705 224.278 146.705Z" fill="white"/>
<path d="M227.85 146.705H226.747C226.413 146.705 226.142 146.974 226.142 147.307C226.142 147.64 226.413 147.91 226.747 147.91H227.85C228.184 147.91 228.455 147.64 228.455 147.307C228.455 146.974 228.184 146.705 227.85 146.705Z" fill="white"/>
<path d="M220.848 146.604H213.997C213.663 146.604 213.392 146.874 213.392 147.207C213.392 147.54 213.663 147.81 213.997 147.81H220.848C221.183 147.81 221.454 147.54 221.454 147.207C221.454 146.874 221.183 146.604 220.848 146.604Z" fill="white"/>
<path d="M214.192 157.526H213.09C212.755 157.526 212.484 157.796 212.484 158.129C212.484 158.462 212.755 158.732 213.09 158.732H214.192C214.526 158.732 214.797 158.462 214.797 158.129C214.797 157.796 214.526 157.526 214.192 157.526Z" fill="white"/>
<path d="M217.764 157.526H216.662C216.327 157.526 216.056 157.796 216.056 158.129C216.056 158.462 216.327 158.732 216.662 158.732H217.764C218.098 158.732 218.369 158.462 218.369 158.129C218.369 157.796 218.098 157.526 217.764 157.526Z" fill="white"/>
<path d="M227.572 157.626H220.721C220.387 157.626 220.116 157.896 220.116 158.229C220.116 158.562 220.387 158.832 220.721 158.832H227.572C227.906 158.832 228.177 158.562 228.177 158.229C228.177 157.896 227.906 157.626 227.572 157.626Z" fill="white"/>
<path d="M201.585 157.526H200.482C200.148 157.526 199.877 157.796 199.877 158.129C199.877 158.462 200.148 158.732 200.482 158.732H201.585C201.919 158.732 202.19 158.462 202.19 158.129C202.19 157.796 201.919 157.526 201.585 157.526Z" fill="white"/>
<path d="M210.763 157.626H203.912C203.577 157.626 203.307 157.896 203.307 158.229C203.307 158.562 203.577 158.832 203.912 158.832H210.763C211.097 158.832 211.368 158.562 211.368 158.229C211.368 157.896 211.097 157.626 210.763 157.626Z" fill="white"/>
<path d="M204.947 154.804H203.844C203.51 154.804 203.239 155.074 203.239 155.407C203.239 155.74 203.51 156.01 203.844 156.01H204.947C205.281 156.01 205.552 155.74 205.552 155.407C205.552 155.074 205.281 154.804 204.947 154.804Z" fill="white"/>
<path d="M217.554 154.804H216.451C216.117 154.804 215.846 155.074 215.846 155.407C215.846 155.74 216.117 156.01 216.451 156.01H217.554C217.888 156.01 218.159 155.74 218.159 155.407C218.159 155.074 217.888 154.804 217.554 154.804Z" fill="white"/>
<path d="M221.126 154.804H220.023C219.689 154.804 219.418 155.074 219.418 155.407C219.418 155.74 219.689 156.01 220.023 156.01H221.126C221.46 156.01 221.731 155.74 221.731 155.407C221.731 155.074 221.46 154.804 221.126 154.804Z" fill="white"/>
<path d="M214.125 154.905H207.274C206.939 154.905 206.668 155.175 206.668 155.508C206.668 155.841 206.939 156.111 207.274 156.111H214.125C214.459 156.111 214.73 155.841 214.73 155.508C214.73 155.175 214.459 154.905 214.125 154.905Z" fill="white"/>
<path d="M208.309 152.083H207.206C206.872 152.083 206.601 152.353 206.601 152.686C206.601 153.019 206.872 153.289 207.206 153.289H208.309C208.643 153.289 208.914 153.019 208.914 152.686C208.914 152.353 208.643 152.083 208.309 152.083Z" fill="white"/>
<path d="M220.916 152.083H219.813C219.479 152.083 219.208 152.353 219.208 152.686C219.208 153.019 219.479 153.289 219.813 153.289H220.916C221.25 153.289 221.521 153.019 221.521 152.686C221.521 152.353 221.25 152.083 220.916 152.083Z" fill="white"/>
<path d="M224.488 152.083H223.385C223.051 152.083 222.78 152.353 222.78 152.686C222.78 153.019 223.051 153.289 223.385 153.289H224.488C224.822 153.289 225.093 153.019 225.093 152.686C225.093 152.353 224.822 152.083 224.488 152.083Z" fill="white"/>
<path d="M217.486 152.184H210.635C210.301 152.184 210.03 152.454 210.03 152.786C210.03 153.119 210.301 153.389 210.635 153.389H217.486C217.821 153.389 218.092 153.119 218.092 152.786C218.092 152.454 217.821 152.184 217.486 152.184Z" fill="white"/>
<path d="M211.67 149.362H210.568C210.234 149.362 209.963 149.632 209.963 149.965C209.963 150.298 210.234 150.567 210.568 150.567H211.67C212.005 150.567 212.276 150.298 212.276 149.965C212.276 149.632 212.005 149.362 211.67 149.362Z" fill="white"/>
<path d="M224.278 149.362H223.175C222.841 149.362 222.57 149.632 222.57 149.965C222.57 150.298 222.841 150.567 223.175 150.567H224.278C224.612 150.567 224.883 150.298 224.883 149.965C224.883 149.632 224.612 149.362 224.278 149.362Z" fill="white"/>
<path d="M227.85 149.362H226.747C226.413 149.362 226.142 149.632 226.142 149.965C226.142 150.298 226.413 150.567 226.747 150.567H227.85C228.184 150.567 228.455 150.298 228.455 149.965C228.455 149.632 228.184 149.362 227.85 149.362Z" fill="white"/>
<path d="M220.848 149.462H213.997C213.663 149.462 213.392 149.732 213.392 150.065C213.392 150.398 213.663 150.668 213.997 150.668H220.848C221.183 150.668 221.454 150.398 221.454 150.065C221.454 149.732 221.183 149.462 220.848 149.462Z" fill="white"/>
<path d="M195.724 189.419L190.55 181.27L206.792 168.37L213.497 160.97C214.368 160.009 215.477 159.292 216.713 158.891C217.949 158.491 219.269 158.42 220.541 158.687C221.813 158.954 222.993 159.549 223.962 160.412C224.931 161.276 225.655 162.377 226.063 163.607C226.667 165.429 226.537 167.414 225.701 169.143C224.864 170.871 223.386 172.209 221.578 172.872L210.977 176.763L195.724 189.419Z" fill="#FFB6B6"/>
<path d="M74.306 130.332V169.939H102.158V130.332C102.158 130.047 102.067 129.769 101.897 129.54C101.728 129.31 101.489 129.141 101.216 129.057C101.087 129.015 100.952 128.994 100.816 128.995H75.6511C75.4747 128.995 75.3 129.029 75.1369 129.096C74.9738 129.163 74.8255 129.262 74.7006 129.386C74.5757 129.51 74.4765 129.657 74.4088 129.82C74.3411 129.982 74.3062 130.156 74.306 130.332ZM85.1754 143.941C85.1826 143.16 85.4991 142.414 86.0558 141.864C86.6126 141.315 87.3647 141.006 88.1485 141.006C88.9323 141.006 89.6844 141.315 90.2412 141.864C90.798 142.414 91.1144 143.16 91.1217 143.941V148.537C91.1177 149.32 90.8027 150.069 90.2455 150.621C89.6884 151.174 88.9344 151.484 88.1485 151.484C87.3626 151.484 86.6087 151.174 86.0515 150.621C85.4944 150.069 85.1794 149.32 85.1754 148.537V143.941Z" fill="#2F2E41"/>
<path d="M74.2208 168.672V172.492C74.2214 172.69 74.3003 172.879 74.4403 173.02C74.5804 173.16 74.7703 173.239 74.9689 173.241H101.495C101.694 173.24 101.884 173.161 102.024 173.02C102.164 172.88 102.243 172.69 102.243 172.492V168.672H74.2208Z" fill="#3F3D56"/>
<path d="M30.4915 70.6576V142.975C30.4922 143.897 30.86 144.781 31.5141 145.432C32.1682 146.084 33.0551 146.45 33.9802 146.451H141.549C142.474 146.45 143.361 146.084 144.015 145.432C144.669 144.781 145.037 143.897 145.038 142.975V70.6576C145.036 69.7368 144.667 68.8544 144.013 68.2037C143.36 67.5529 142.473 67.1869 141.549 67.1857H33.9802C33.0559 67.1869 32.1698 67.5529 31.5159 68.2037C30.862 68.8544 30.4937 69.7368 30.4915 70.6576Z" fill="#3F3D56"/>
<path d="M33.015 71.5574V142.083C33.0158 142.576 33.2125 143.048 33.562 143.396C33.9115 143.744 34.3852 143.94 34.8795 143.941H140.654C141.148 143.94 141.622 143.744 141.971 143.396C142.321 143.048 142.517 142.576 142.518 142.083V71.5574C142.518 71.0644 142.322 70.5915 141.972 70.2425C141.623 69.8936 141.149 69.697 140.654 69.6959H34.8795C34.3846 69.697 33.9104 69.8936 33.5609 70.2425C33.2113 70.5915 33.015 71.0644 33.015 71.5574Z" fill="white"/>
<path d="M52.6449 172.982C52.7525 173.117 52.8894 173.225 53.0451 173.3C53.2009 173.374 53.3715 173.412 53.5442 173.411H116.473C116.645 173.411 116.815 173.372 116.97 173.299C117.126 173.225 117.263 173.117 117.371 172.984C117.479 172.851 117.557 172.695 117.597 172.529C117.638 172.362 117.64 172.189 117.605 172.021L116.628 167.398C116.588 167.21 116.5 167.034 116.375 166.888C116.249 166.741 116.088 166.629 115.907 166.56C115.776 166.509 115.637 166.483 115.496 166.483H54.5172C54.3766 166.483 54.2372 166.509 54.1063 166.56C53.9255 166.629 53.7648 166.741 53.6388 166.888C53.5129 167.034 53.4257 167.21 53.3853 167.398L52.4084 172.021C52.3737 172.188 52.3769 172.362 52.4178 172.528C52.4587 172.694 52.5362 172.85 52.6449 172.982Z" fill="#2F2E41"/>
<path d="M137.221 79.4112H38.2485C38.1457 79.4089 38.0478 79.3666 37.9758 79.2933C37.9039 79.22 37.8636 79.1216 37.8636 79.0191C37.8636 78.9166 37.9039 78.8181 37.9758 78.7448C38.0478 78.6715 38.1457 78.6292 38.2485 78.627H137.221C137.324 78.6292 137.422 78.6715 137.494 78.7448C137.566 78.8181 137.606 78.9166 137.606 79.0191C137.606 79.1216 137.566 79.22 137.494 79.2933C137.422 79.3666 137.324 79.4089 137.221 79.4112Z" fill="#3F3D56"/>
<path d="M44.9857 76.6249C46.2596 76.6249 47.2923 75.5731 47.2923 74.2757C47.2923 72.9783 46.2596 71.9265 44.9857 71.9265C43.7118 71.9265 42.6791 72.9783 42.6791 74.2757C42.6791 75.5731 43.7118 76.6249 44.9857 76.6249Z" fill="#3F3D56"/>
<path d="M52.9539 76.6249C54.2278 76.6249 55.2605 75.5731 55.2605 74.2757C55.2605 72.9783 54.2278 71.9265 52.9539 71.9265C51.68 71.9265 50.6473 72.9783 50.6473 74.2757C50.6473 75.5731 51.68 76.6249 52.9539 76.6249Z" fill="#3F3D56"/>
<path d="M60.9222 76.6249C62.1961 76.6249 63.2288 75.5731 63.2288 74.2757C63.2288 72.9783 62.1961 71.9265 60.9222 71.9265C59.6483 71.9265 58.6156 72.9783 58.6156 74.2757C58.6156 75.5731 59.6483 76.6249 60.9222 76.6249Z" fill="#3F3D56"/>
<path d="M132.423 72.5074H126.763C126.652 72.51 126.545 72.5561 126.467 72.6359C126.389 72.7156 126.345 72.8227 126.345 72.9342C126.345 73.0457 126.389 73.1527 126.467 73.2325C126.545 73.3122 126.652 73.3583 126.763 73.3609H132.423C132.535 73.3593 132.643 73.3137 132.722 73.2338C132.801 73.154 132.845 73.0463 132.845 72.9342C132.845 72.822 132.801 72.7144 132.722 72.6345C132.643 72.5547 132.535 72.509 132.423 72.5074Z" fill="#3F3D56"/>
<path d="M132.423 74.1101H126.763C126.651 74.1126 126.545 74.1586 126.467 74.2384C126.388 74.3181 126.344 74.4253 126.344 74.5369C126.344 74.6484 126.388 74.7556 126.467 74.8353C126.545 74.9151 126.651 74.9611 126.763 74.9636H132.423C132.536 74.9622 132.643 74.9167 132.722 74.8368C132.802 74.7569 132.846 74.6491 132.846 74.5369C132.846 74.4246 132.802 74.3168 132.722 74.2369C132.643 74.157 132.536 74.1115 132.423 74.1101Z" fill="#3F3D56"/>
<path d="M132.423 75.7128H126.763C126.652 75.7154 126.545 75.7615 126.467 75.8412C126.389 75.921 126.345 76.028 126.345 76.1395C126.345 76.251 126.389 76.3581 126.467 76.4378C126.545 76.5176 126.652 76.5636 126.763 76.5662H132.423C132.535 76.5647 132.643 76.519 132.722 76.4392C132.801 76.3593 132.845 76.2517 132.845 76.1395C132.845 76.0274 132.801 75.9197 132.722 75.8399C132.643 75.76 132.535 75.7144 132.423 75.7128Z" fill="#3F3D56"/>
<path d="M268.863 170.349C269.034 170.844 269.358 171.273 269.788 171.573C270.219 171.874 270.734 172.031 271.26 172.021L281.529 171.758C282.058 171.748 282.57 171.567 282.988 171.243C283.406 170.919 283.708 170.469 283.847 169.96L285.301 154.478C285.816 154.711 286.377 154.826 286.943 154.815C287.435 154.802 287.919 154.694 288.369 154.495C288.818 154.296 289.224 154.011 289.563 153.656C289.902 153.301 290.167 152.883 290.344 152.426C290.521 151.968 290.606 151.481 290.593 150.991C290.581 150.501 290.472 150.019 290.272 149.571C290.073 149.123 289.787 148.719 289.43 148.381C289.074 148.043 288.654 147.779 288.195 147.603C287.736 147.427 287.247 147.342 286.755 147.355C286.529 147.354 286.304 147.377 286.082 147.424C285.842 147.165 285.549 146.959 285.224 146.819C284.899 146.679 284.547 146.609 284.193 146.612L268.397 147.019C268.266 147.024 268.135 147.04 268.007 147.067C267.661 147.131 267.332 147.269 267.043 147.47C266.755 147.672 266.513 147.932 266.334 148.235C266.155 148.537 266.043 148.874 266.006 149.223C265.969 149.572 266.007 149.925 266.118 150.259L268.863 170.349ZM285.599 153.427L286.633 149.738C286.75 149.312 286.753 148.862 286.641 148.435C286.691 148.435 286.735 148.411 286.785 148.411C287.494 148.396 288.18 148.662 288.692 149.151C289.205 149.639 289.502 150.31 289.519 151.017C289.535 151.723 289.27 152.407 288.781 152.919C288.292 153.431 287.619 153.728 286.911 153.747C286.452 153.761 285.999 153.651 285.599 153.427Z" fill="#2F2E41"/>
<path d="M268.007 147.067C268.343 148.984 272.127 150.332 276.677 150.097C280.86 149.905 284.281 148.442 284.908 146.707C284.676 146.639 284.435 146.607 284.193 146.612L268.396 147.019C268.265 147.023 268.135 147.04 268.007 147.067Z" fill="#3F3D56"/>
<path d="M277.51 161.842C277.531 161.836 277.551 161.828 277.569 161.816L279.799 160.362C279.826 160.344 279.848 160.32 279.864 160.292C279.879 160.264 279.887 160.232 279.887 160.2C279.887 160.168 279.879 160.137 279.864 160.108C279.848 160.08 279.826 160.056 279.799 160.039L277.481 158.526C277.46 158.512 277.436 158.502 277.411 158.498C277.386 158.493 277.36 158.493 277.335 158.498C277.31 158.503 277.287 158.513 277.266 158.528C277.244 158.542 277.226 158.56 277.212 158.581C277.198 158.603 277.189 158.626 277.184 158.651C277.179 158.676 277.18 158.702 277.185 158.727C277.19 158.752 277.2 158.775 277.215 158.796C277.229 158.817 277.247 158.835 277.269 158.849L279.339 160.2L277.357 161.493C277.318 161.518 277.29 161.556 277.277 161.599C277.264 161.643 277.267 161.69 277.285 161.732C277.304 161.774 277.337 161.808 277.378 161.828C277.419 161.848 277.466 161.853 277.51 161.842H277.51Z" fill="#6C63FF"/>
<path d="M273.988 162.003C274.026 161.994 274.059 161.974 274.085 161.945C274.111 161.916 274.127 161.881 274.133 161.843C274.138 161.804 274.132 161.766 274.115 161.731C274.098 161.697 274.071 161.668 274.037 161.649L271.981 160.475L273.968 159.004C273.989 158.989 274.006 158.97 274.019 158.949C274.032 158.927 274.041 158.903 274.044 158.878C274.048 158.853 274.047 158.827 274.041 158.802C274.034 158.778 274.023 158.755 274.008 158.734C273.993 158.714 273.974 158.697 273.952 158.684C273.93 158.671 273.906 158.662 273.881 158.659C273.856 158.655 273.83 158.656 273.806 158.662C273.781 158.669 273.758 158.679 273.737 158.695L271.513 160.341C271.487 160.36 271.466 160.385 271.453 160.414C271.439 160.443 271.433 160.475 271.435 160.507C271.437 160.539 271.447 160.57 271.464 160.597C271.48 160.625 271.504 160.647 271.532 160.663L273.844 161.984C273.888 162.009 273.939 162.016 273.988 162.003Z" fill="#6C63FF"/>
<path d="M277.289 163.116C277.308 163.111 277.325 163.104 277.342 163.094C277.364 163.081 277.383 163.063 277.398 163.043C277.413 163.022 277.424 162.999 277.43 162.974C277.436 162.95 277.437 162.924 277.433 162.899C277.429 162.874 277.42 162.85 277.407 162.828L274.245 157.65C274.219 157.607 274.176 157.575 274.126 157.563C274.076 157.551 274.023 157.559 273.979 157.586C273.935 157.613 273.904 157.656 273.892 157.705C273.879 157.755 273.888 157.807 273.914 157.851L277.076 163.029C277.097 163.065 277.13 163.092 277.168 163.108C277.206 163.123 277.249 163.126 277.289 163.116Z" fill="#6C63FF"/>
<path d="M99.5603 100.729H82.4304C81.7315 100.729 81.165 101.293 81.165 101.989V103.657C81.165 104.353 81.7315 104.917 82.4304 104.917H99.5603C100.259 104.917 100.826 104.353 100.826 103.657V101.989C100.826 101.293 100.259 100.729 99.5603 100.729Z" fill="#EF9273"/>
<path d="M109.545 109.106H72.4454C71.7466 109.106 71.1801 109.67 71.1801 110.366V112.034C71.1801 112.73 71.7466 113.294 72.4454 113.294H109.545C110.244 113.294 110.811 112.73 110.811 112.034V110.366C110.811 109.67 110.244 109.106 109.545 109.106Z" fill="#E6E6E6"/>
<path d="M109.545 117.483H72.4454C71.7466 117.483 71.1801 118.047 71.1801 118.743V120.411C71.1801 121.107 71.7466 121.671 72.4454 121.671H109.545C110.244 121.671 110.811 121.107 110.811 120.411V118.743C110.811 118.047 110.244 117.483 109.545 117.483Z" fill="#E6E6E6"/>
<path d="M112.69 145.534L112.774 145.798L112.779 145.807L115.308 153.468L118.218 162.297L123.692 178.888L123.745 181.465V181.474L124.152 202.207L123.025 205.017L124.294 209.626C124.294 209.626 123.71 202.66 120.579 206.66C118.806 208.933 116.732 211.259 115.029 213.44C117.51 214.44 120.031 215.345 122.591 216.154C123.144 216.33 123.701 216.498 124.258 216.665C124.378 216.7 124.497 216.735 124.616 216.771C133.104 219.271 141.878 220.676 150.724 220.952C151.184 220.965 151.635 220.974 152.073 220.982C152.228 220.987 152.378 220.991 152.528 220.991C153.024 220.996 153.514 221 154.01 221C155.009 221 156.004 220.985 156.995 220.956C164.326 220.75 171.615 219.768 178.738 218.026C178.689 215.097 178.556 211.674 178.366 208.017C178.278 206.224 176.292 204.281 176.173 202.404C176.089 200.995 177.871 199.668 177.778 198.237C177.177 189.421 176.425 192.805 175.868 186.563C175.81 185.95 175.757 185.364 175.709 184.805C175.35 180.796 175.103 178.289 175.103 178.289L177.482 163.35L181.218 139.895L180.931 139.424L180.608 139.265L160.899 129.546L159.829 126.815C159.517 126.028 158.976 125.352 158.276 124.874C157.575 124.396 156.747 124.137 155.898 124.132L142.915 124.079C142.241 124.076 141.576 124.233 140.976 124.537C140.375 124.841 139.856 125.284 139.461 125.828L135.946 130.679L112.69 145.534Z" fill="#3F3D56"/>
<path d="M126.686 175.196L123.745 181.465L121.738 185.748L118.284 203.762L116.555 205.59L115.074 199.118L99.5691 202.548C99.0606 199.732 99.433 202.643 99.119 199.555C99.2075 199.466 99.3003 199.378 99.3932 199.29C99.6408 199.061 99.8487 198.845 99.8442 198.638C99.6673 187.986 100.198 169.857 104.629 158.874C105.323 157.081 106.238 155.38 107.353 153.812C107.441 153.693 107.525 153.574 107.609 153.455C109.652 150.605 110.944 147.798 112.774 145.803V145.798C112.786 145.789 112.796 145.779 112.805 145.767C112.812 145.764 112.818 145.76 112.823 145.754L125.399 139.111L125.939 154.213L126.323 165.068L126.686 175.196Z" fill="#3F3D56"/>
<path d="M172.034 176.977L175.707 184.807L176.989 187.534L180.441 205.546L182.165 207.37L183.65 200.899L184.347 200.757L196.929 198.161L200.597 209.764C201.423 208.392 201.749 206.778 201.518 205.194C201.288 203.611 200.516 202.155 199.332 201.073C199.082 200.847 198.873 200.627 198.879 200.419C199.088 187.89 198.319 165.012 191.372 155.596C189.165 152.608 187.842 149.631 185.916 147.552C185.91 147.546 185.91 147.54 185.904 147.54L181.217 139.894L180.93 139.425L180.608 139.265L172.034 176.977Z" fill="#3F3D56"/>
<path d="M149.781 120.398C159.321 120.398 167.054 112.694 167.054 103.19C167.054 93.6864 159.321 85.9821 149.781 85.9821C140.242 85.9821 132.509 93.6864 132.509 103.19C132.509 112.694 140.242 120.398 149.781 120.398Z" fill="#FFB6B6"/>
<path d="M173.127 91.1704C172.993 91.0279 172.832 90.9138 172.653 90.8348C172.473 90.7558 172.28 90.7137 172.084 90.7108L172.344 89.9925C172.429 89.7663 172.452 89.5216 172.41 89.2837C172.369 89.0457 172.265 88.823 172.109 88.6383C171.952 88.4536 171.75 88.3136 171.521 88.2326C171.293 88.1516 171.047 88.1326 170.809 88.1774L169.863 88.3589L169.952 87.7295C169.986 87.495 169.959 87.2557 169.872 87.0352C169.785 86.8146 169.642 86.6203 169.457 86.4715C169.272 86.3226 169.052 86.2243 168.817 86.1862C168.582 86.1481 168.342 86.1716 168.119 86.2542C167.916 86.3337 167.698 86.367 167.481 86.3516C167.263 86.3363 167.052 86.2726 166.863 86.1654C166.673 86.0614 166.507 85.9174 166.379 85.7433C166.25 85.5692 166.162 85.3693 166.119 85.1574L165.789 83.574L165.754 83.4891C164.149 80.8244 161.064 78.8857 157.288 78.1751C153.927 77.5379 150.481 77.8623 147.159 78.1674C145.841 78.291 144.353 78.43 143.112 79.1869C142.058 79.8357 141.166 81.1333 141.349 82.4425C138.073 81.4423 134.561 83.4389 132.821 85.9568C130.758 88.9537 130.421 92.7074 130.367 95.6425C130.22 102.586 131.658 108.267 134.631 112.531C134.848 112.84 134.902 113.484 135.332 113.701L135.243 113.558C135.724 113.797 136.212 114.183 136.03 114.597C135.507 115.786 138.984 118.416 141.434 119.285C145.903 120.872 151.846 120.737 156.024 120.166L156.172 119.181C157.68 118.976 158.742 118.586 159.04 117.976C159.567 117.528 160.017 117.126 160.409 116.755L160.413 116.752C160.42 116.744 160.436 116.732 160.444 116.725C162.331 114.921 162.769 113.894 162.967 112.33C163.157 110.797 162.82 109.24 162.475 107.838C169.739 108.958 159.614 100.13 166.382 98.4231C166.46 98.3992 166.539 98.3799 166.619 98.3651C166.816 98.3188 167.014 98.2724 167.204 98.2184C168.12 97.9708 168.996 97.5978 169.809 97.11C171.701 95.963 172.325 94.4414 173.301 92.7268C173.442 92.4826 173.501 92.2 173.47 91.9201C173.439 91.6402 173.319 91.3776 173.127 91.1704Z" fill="#2F2E41"/>
<path d="M210.871 178.202C210.867 178.878 210.86 179.824 210.829 180.994C210.825 181.156 210.821 181.323 210.817 181.492C210.767 183.644 210.716 185.447 210.635 187.451C210.631 187.59 210.627 187.726 210.619 187.865C210.511 190.661 210.34 193.916 210.046 199.072C209.499 208.595 208.545 200.381 207.588 203.722C207.541 203.888 207.491 204.085 207.444 204.316C207.299 205.157 207.055 205.978 206.716 206.761C206.208 207.062 205.685 207.352 205.169 207.641C203.7 208.456 202.208 209.24 200.703 209.986C199.858 210.403 199.01 210.812 198.157 211.206C198.021 211.268 197.889 211.329 197.757 211.387C193.39 213.4 188.89 215.111 184.287 216.508C183.388 216.779 182.492 217.041 181.585 217.285C180.639 217.547 179.694 217.794 178.736 218.026C171.613 219.768 164.325 220.751 156.994 220.957C156.005 220.988 155.009 221 154.009 221C153.513 221 153.024 220.996 152.528 220.992C152.377 220.992 152.226 220.988 152.075 220.984C151.637 220.973 151.183 220.965 150.726 220.953C141.879 220.678 133.105 219.273 124.618 216.771L124.258 216.667C123.7 216.497 123.145 216.331 122.591 216.153C120.032 215.346 117.512 214.442 115.028 213.442C113.133 212.681 111.259 211.865 109.407 210.993C109.39 210.989 109.375 210.981 109.361 210.97C108.973 210.793 108.582 210.607 108.194 210.418C108.144 210.391 108.089 210.364 108.035 210.337C106.589 209.634 105.159 208.898 103.744 208.128C102.554 205.405 100.879 204.884 99.8405 202.49C99.5382 201.778 99.3196 201.034 99.1893 200.273C99.1893 200.265 99.1854 200.257 99.1854 200.246C99.294 201.682 98.7241 197.697 99.1815 200.23C99.1777 200.184 99.1738 200.134 99.1699 200.076C99.1583 199.937 99.1428 199.767 99.1195 199.555C97.79 186.621 97.8752 171.83 97.2977 159.642C97.2589 158.854 97.2188 158.1 97.1775 157.379C97.1659 157.139 97.1504 156.904 97.1348 156.672C97.162 156.603 97.193 156.529 97.2279 156.46C97.2353 156.44 97.2444 156.42 97.255 156.402C97.2664 156.378 97.2794 156.355 97.2938 156.332C97.3015 156.321 97.3131 156.305 97.3209 156.294C97.3266 156.28 97.333 156.267 97.3403 156.255C97.3752 156.201 97.4139 156.143 97.4566 156.089C97.4759 156.066 97.4915 156.046 97.5108 156.027C97.5242 156.007 97.5398 155.989 97.5573 155.973C97.5692 155.954 97.5836 155.938 97.6 155.923C97.6155 155.907 97.631 155.888 97.6504 155.869C97.6587 155.857 97.6692 155.846 97.6814 155.838C97.7121 155.803 97.7458 155.77 97.7822 155.741C97.9205 155.615 98.0682 155.498 98.2241 155.394C98.2783 155.359 98.3365 155.324 98.3908 155.286C98.7814 155.053 99.1928 154.856 99.6196 154.699C99.7669 154.645 99.9142 154.594 100.073 154.54C100.131 154.525 100.186 154.506 100.244 154.486C100.329 154.459 100.414 154.432 100.503 154.413C100.945 154.282 101.422 154.17 101.938 154.065C102 154.054 102.066 154.042 102.131 154.027C102.224 154.007 102.321 153.992 102.418 153.976C102.55 153.953 102.686 153.93 102.821 153.907C103.973 153.725 105.279 153.59 106.721 153.501C106.857 153.494 106.992 153.486 107.128 153.478C107.287 153.471 107.446 153.463 107.609 153.455C107.744 153.447 107.884 153.443 108.024 153.44C108.159 153.432 108.299 153.428 108.442 153.424C108.834 153.413 109.237 153.401 109.648 153.393C110.818 153.37 112.051 153.378 113.346 153.405C113.947 153.42 114.559 153.436 115.187 153.463C115.23 153.463 115.268 153.467 115.307 153.467C115.854 153.486 116.404 153.509 116.97 153.54C117.366 153.559 117.765 153.579 118.164 153.602C118.54 153.625 118.92 153.648 119.304 153.675C119.602 153.691 119.901 153.714 120.203 153.733C120.459 153.752 120.715 153.772 120.971 153.787L121.319 153.81C121.509 153.826 121.699 153.837 121.893 153.857C122.32 153.891 122.746 153.926 123.18 153.961C123.61 154 124.048 154.038 124.486 154.077C124.924 154.115 125.366 154.158 125.808 154.2C125.855 154.204 125.897 154.208 125.94 154.212C126.343 154.255 126.746 154.293 127.153 154.336C127.246 154.343 127.343 154.351 127.436 154.363C127.824 154.401 128.22 154.447 128.612 154.488C128.732 154.501 128.851 154.514 128.972 154.527C129.279 154.56 129.581 154.589 129.89 154.625C130.297 154.672 130.712 154.714 131.115 154.768C131.429 154.803 131.743 154.838 132.057 154.876C132.549 154.934 133.049 154.996 133.549 155.062C133.739 155.085 133.929 155.108 134.119 155.135C135.546 155.313 136.988 155.51 138.453 155.714C140.674 156.027 142.93 156.367 145.202 156.734C147.477 157.101 149.765 157.488 152.067 157.896C152.648 158.001 153.23 158.105 153.815 158.213C154.079 158.263 154.342 158.313 154.606 158.364C155.055 158.445 155.505 158.53 155.955 158.615C156.404 158.7 156.854 158.784 157.304 158.873C157.839 158.978 158.377 159.082 158.912 159.186C162.436 159.881 165.94 160.623 169.359 161.399C169.921 161.526 170.483 161.658 171.042 161.785C172.158 162.044 173.264 162.307 174.36 162.573C174.662 162.643 174.961 162.716 175.259 162.789C176.003 162.975 176.748 163.16 177.48 163.349L177.608 163.384C178.147 163.515 178.674 163.65 179.201 163.79C180.446 164.114 181.669 164.442 182.872 164.774C183.671 164.994 184.46 165.217 185.241 165.442C186.407 165.778 187.551 166.118 188.663 166.462C188.939 166.547 189.214 166.632 189.485 166.713C190.299 166.964 191.102 167.219 191.881 167.474C192.501 167.675 193.106 167.879 193.703 168.084C194.3 168.289 194.885 168.493 195.459 168.698C195.827 168.829 196.191 168.968 196.556 169.1C197.079 169.293 197.595 169.486 198.099 169.679C198.254 169.737 198.405 169.799 198.556 169.857C198.653 169.899 198.746 169.934 198.839 169.972C199.021 170.046 199.207 170.115 199.385 170.189C199.568 170.258 199.746 170.332 199.924 170.409C200.099 170.478 200.277 170.552 200.448 170.625C200.622 170.695 200.793 170.768 200.963 170.845C201.107 170.903 201.246 170.965 201.382 171.027C201.657 171.146 201.932 171.266 202.2 171.39C202.332 171.452 202.463 171.509 202.595 171.571L202.897 171.71C202.94 171.733 202.983 171.753 203.025 171.772C203.122 171.818 203.223 171.869 203.32 171.915C203.545 172.019 203.766 172.131 203.983 172.235C204.274 172.382 204.557 172.529 204.828 172.672C205.103 172.819 205.371 172.965 205.626 173.108C205.669 173.131 205.708 173.155 205.75 173.178C205.809 173.209 205.867 173.243 205.925 173.274C206.123 173.386 206.313 173.502 206.502 173.614C206.875 173.842 207.227 174.066 207.557 174.29C207.631 174.34 207.7 174.39 207.774 174.437C208.018 174.611 208.251 174.78 208.468 174.954C208.468 174.958 208.468 174.958 208.472 174.958C208.545 175.012 208.615 175.07 208.685 175.124C208.743 175.178 208.805 175.225 208.863 175.279C209.065 175.452 209.251 175.618 209.421 175.788C209.479 175.841 209.533 175.896 209.584 175.954C209.607 175.973 209.628 175.994 209.646 176.016C209.724 176.093 209.794 176.171 209.859 176.248C209.87 176.259 209.879 176.27 209.887 176.283C209.98 176.391 210.065 176.499 210.146 176.607C210.185 176.661 210.228 176.715 210.263 176.769C210.309 176.835 210.356 176.904 210.394 176.97C210.429 177.024 210.46 177.082 210.491 177.136C210.574 177.275 210.644 177.421 210.701 177.573C210.744 177.675 210.779 177.781 210.805 177.889C210.835 177.992 210.857 178.096 210.871 178.202Z" fill="#0D0D0D"/>
<path opacity="0.2" d="M210.871 178.202C210.867 178.878 210.86 179.824 210.829 180.994C210.825 181.156 210.817 181.323 210.813 181.492C210.774 183.134 210.716 185.161 210.635 187.451C210.631 187.59 210.627 187.726 210.619 187.865C210.511 190.661 210.34 193.916 210.046 199.072C209.499 208.595 208.545 200.381 207.588 203.722C204.929 202.092 202.014 200.385 198.897 198.632C198.335 198.315 197.768 197.997 197.195 197.678C190.962 194.214 184 190.583 176.732 186.988C176.445 186.845 176.154 186.702 175.868 186.563C159.219 178.364 141.046 170.39 126.324 165.068C123.482 164.041 120.769 163.114 118.218 162.299C112.846 160.588 108.202 159.391 104.628 158.873C100.906 158.333 98.3365 158.526 97.2976 159.642C97.2588 158.854 97.2188 158.1 97.1774 157.379C97.1619 157.139 97.1464 156.904 97.1309 156.672C97.1548 156.608 97.1859 156.548 97.216 156.487C97.2203 156.478 97.2234 156.468 97.2278 156.46C97.2353 156.44 97.2443 156.42 97.255 156.402C97.2664 156.378 97.2793 156.355 97.2937 156.332C97.3063 156.305 97.3219 156.279 97.3402 156.255C97.3751 156.201 97.4139 156.143 97.4565 156.089C97.4879 156.048 97.5215 156.01 97.5573 155.973C97.5692 155.954 97.5836 155.938 97.6 155.923C97.6155 155.907 97.631 155.888 97.6504 155.869C97.6586 155.857 97.6692 155.846 97.6814 155.838C97.712 155.803 97.7458 155.77 97.7822 155.741C97.9205 155.615 98.0682 155.498 98.2241 155.394C98.2783 155.359 98.3365 155.324 98.3907 155.286C98.7814 155.053 99.1927 154.856 99.6196 154.699C99.7669 154.645 99.9141 154.594 100.073 154.54C100.131 154.525 100.185 154.506 100.244 154.486C100.329 154.459 100.414 154.432 100.503 154.413C100.945 154.282 101.422 154.17 101.938 154.065C102.093 154.034 102.255 154.003 102.418 153.976C102.55 153.953 102.686 153.93 102.821 153.907C103.973 153.725 105.279 153.59 106.721 153.501C106.857 153.494 106.992 153.486 107.128 153.478C107.287 153.471 107.446 153.463 107.609 153.455C107.744 153.447 107.884 153.444 108.024 153.44C108.159 153.432 108.299 153.428 108.442 153.424C108.834 153.413 109.237 153.401 109.648 153.393C110.818 153.374 112.051 153.382 113.346 153.409C113.947 153.42 114.559 153.44 115.187 153.467C115.226 153.467 115.268 153.471 115.307 153.471C115.854 153.486 116.408 153.513 116.97 153.54C117.366 153.559 117.765 153.579 118.164 153.602C118.54 153.625 118.92 153.648 119.304 153.675C119.602 153.691 119.901 153.714 120.203 153.733C120.459 153.752 120.715 153.772 120.971 153.787C121.277 153.81 121.583 153.834 121.893 153.857C122.32 153.891 122.746 153.926 123.18 153.961C123.61 154 124.048 154.038 124.486 154.077C124.924 154.115 125.366 154.158 125.808 154.2C125.855 154.204 125.897 154.208 125.94 154.212C126.343 154.255 126.746 154.293 127.153 154.336C129.409 154.563 131.731 154.83 134.119 155.135C135.546 155.317 136.99 155.511 138.453 155.718C140.674 156.031 142.93 156.371 145.202 156.734C147.477 157.101 149.765 157.488 152.067 157.896C152.648 158.001 153.23 158.105 153.815 158.213C154.528 158.344 155.241 158.478 155.955 158.615C156.404 158.7 156.854 158.785 157.304 158.873C157.839 158.978 158.377 159.082 158.912 159.186C162.436 159.881 165.94 160.623 169.359 161.399C169.921 161.526 170.483 161.658 171.042 161.785C172.158 162.044 173.264 162.307 174.36 162.573C174.662 162.646 174.961 162.72 175.259 162.793C176.007 162.979 176.748 163.164 177.48 163.349V163.353C177.523 163.361 177.565 163.372 177.608 163.384C178.143 163.519 178.674 163.654 179.201 163.793C180.446 164.118 181.669 164.445 182.872 164.774C183.671 164.998 184.461 165.218 185.241 165.442C186.407 165.782 187.551 166.122 188.663 166.462C188.939 166.547 189.214 166.632 189.485 166.713C190.299 166.968 191.098 167.221 191.881 167.474C192.501 167.675 193.106 167.879 193.703 168.084C194.3 168.289 194.885 168.493 195.459 168.698C195.831 168.829 196.195 168.964 196.556 169.096C197.083 169.289 197.595 169.482 198.099 169.679C198.254 169.737 198.405 169.799 198.556 169.857C198.839 169.965 199.114 170.077 199.385 170.189C199.568 170.258 199.746 170.332 199.924 170.409C200.099 170.478 200.277 170.552 200.448 170.625C200.622 170.695 200.793 170.768 200.963 170.845C201.107 170.903 201.246 170.965 201.382 171.027C201.657 171.146 201.932 171.266 202.2 171.39C202.332 171.452 202.463 171.509 202.595 171.571L202.897 171.71C202.94 171.733 202.983 171.753 203.025 171.772C203.355 171.927 203.673 172.081 203.983 172.235C204.274 172.382 204.557 172.529 204.828 172.672C205.15 172.842 205.456 173.008 205.75 173.178C205.809 173.209 205.867 173.243 205.925 173.274C206.123 173.386 206.313 173.502 206.502 173.614C206.875 173.842 207.227 174.066 207.557 174.29C207.882 174.514 208.185 174.734 208.468 174.954C208.468 174.958 208.468 174.958 208.472 174.958C208.607 175.066 208.739 175.174 208.863 175.279C209.065 175.452 209.251 175.618 209.421 175.788C209.479 175.841 209.533 175.896 209.584 175.954C209.607 175.973 209.628 175.994 209.646 176.016C209.728 176.105 209.809 176.194 209.887 176.283C209.98 176.391 210.065 176.499 210.146 176.607C210.185 176.661 210.228 176.715 210.263 176.769C210.309 176.835 210.356 176.904 210.394 176.97C210.429 177.024 210.46 177.082 210.491 177.136C210.574 177.275 210.644 177.421 210.701 177.573C210.743 177.676 210.778 177.781 210.805 177.889C210.835 177.992 210.857 178.096 210.871 178.202Z" fill="black"/>
</g>
<defs>
<clipPath id="clip0_7_120">
<rect width="305" height="221" fill="white"/>
</clipPath>
</defs>
</svg>
