<svg width="328" height="286" viewBox="0 0 328 286" fill="none" xmlns="http://www.w3.org/2000/svg">
<path d="M324.092 109.372L164.562 0.151855L3.40262 108.354L162.158 173.643L324.092 109.372Z" fill="white"/>
<path d="M4.01747 108.254H4.13238L70.0192 135.654L160.166 173.143C160.518 173.287 160.896 173.362 161.278 173.364C161.661 173.366 162.039 173.295 162.393 173.154L255.398 135.576L322.904 108.299L323.007 108.254H323.122C324.187 108.256 325.208 108.668 325.961 109.402C326.714 110.135 327.138 111.13 327.139 112.167V282.087C327.138 283.125 326.714 284.119 325.961 284.853C325.208 285.586 324.187 285.999 323.122 286H4.01747C2.95232 285.999 1.93115 285.586 1.17798 284.853C0.424809 284.119 0.00118268 283.125 0 282.087V112.167C0.00118269 111.13 0.424808 110.135 1.17798 109.402C1.93115 108.668 2.95232 108.256 4.01747 108.254Z" fill="white"/>
<path d="M3.73106 109.372C3.84821 109.372 3.96256 109.337 4.05865 109.272L162.784 1.61651C163.267 1.29041 163.841 1.11617 164.428 1.11714C165.016 1.11812 165.589 1.29428 166.071 1.62197L323.653 109.271C323.778 109.356 323.932 109.389 324.081 109.363C324.231 109.337 324.364 109.255 324.451 109.133C324.539 109.012 324.573 108.862 324.547 108.716C324.521 108.571 324.436 108.441 324.312 108.356L166.73 0.706602C166.056 0.247898 165.253 0.00132276 164.43 5.30744e-06C163.607 -0.00131215 162.804 0.242671 162.128 0.699212L3.40266 108.354C3.30239 108.422 3.22706 108.52 3.18759 108.633C3.14813 108.745 3.14659 108.867 3.18323 108.981C3.21988 109.094 3.29279 109.193 3.39133 109.264C3.48987 109.334 3.60888 109.372 3.73109 109.372L3.73106 109.372Z" fill="#3F3D56"/>
<path d="M314.648 113.188L164.272 4.64966L12.7559 120.911L156.525 203.915L234.579 186.588L314.648 113.188Z" fill="#E6E6E6"/>
<path d="M227.99 255.183H302.279C303.199 255.183 304.081 254.828 304.732 254.195C305.383 253.562 305.75 252.704 305.751 251.808C305.753 250.912 305.389 250.052 304.74 249.418C304.091 248.783 303.209 248.425 302.29 248.423H227.99C227.07 248.423 226.188 248.778 225.537 249.411C224.886 250.044 224.519 250.902 224.518 251.798C224.516 252.694 224.88 253.554 225.529 254.188C226.178 254.823 227.06 255.181 227.98 255.183H227.99Z" fill="#EF9273"/>
<path d="M275.626 240.65H302.279C303.199 240.651 304.081 240.296 304.733 239.663C305.384 239.03 305.75 238.171 305.751 237.275C305.753 236.379 305.389 235.52 304.74 234.885C304.091 234.25 303.209 233.892 302.29 233.89H275.626C274.706 233.89 273.824 234.245 273.173 234.878C272.522 235.511 272.155 236.369 272.154 237.265C272.153 238.161 272.516 239.021 273.165 239.656C273.815 240.29 274.696 240.648 275.616 240.65H275.626Z" fill="#EF9273"/>
<path d="M162.158 173.643C162.722 173.643 163.282 173.537 163.804 173.329L256.546 135.852V18.543C256.545 17.5057 256.121 16.5112 255.368 15.7777C254.615 15.0442 253.594 14.6316 252.528 14.6304H74.6106C73.5455 14.6316 72.5244 15.0442 71.7712 15.7777C71.0181 16.5112 70.5944 17.5057 70.5931 18.543V135.934L70.7674 136.006L160.461 173.31C160.998 173.53 161.575 173.643 162.158 173.643Z" fill="white"/>
<path d="M160.348 173.567L70.3062 136.118V18.5429C70.3075 17.4315 70.7615 16.366 71.5684 15.5801C72.3754 14.7942 73.4695 14.3521 74.6107 14.3508H252.528C253.67 14.3521 254.764 14.7942 255.571 15.5801C256.378 16.366 256.832 17.4315 256.833 18.5429V136.038L163.914 173.587C162.769 174.04 161.487 174.033 160.349 173.567H160.348ZM255.685 18.5429C255.684 17.7279 255.351 16.9465 254.759 16.3702C254.168 15.7939 253.365 15.4697 252.528 15.4687H74.6107C73.7738 15.4697 72.9715 15.7939 72.3797 16.3702C71.7879 16.9465 71.455 17.7279 71.4541 18.5429V135.38L160.797 172.538C161.653 172.888 162.616 172.894 163.476 172.554L255.685 135.292L255.685 18.5429Z" fill="#3F3D56"/>
<path d="M0.860962 112.167V282.087C0.862145 283.125 1.28581 284.119 2.03898 284.853C2.79215 285.586 3.81332 285.999 4.87847 286H323.983C325.048 285.999 326.069 285.586 326.822 284.853C327.575 284.119 327.999 283.125 328 282.087V112.167C327.999 111.13 327.575 110.135 326.822 109.402C326.069 108.668 325.048 108.256 323.983 108.254H323.868L323.765 108.299L256.259 135.576L163.254 173.154C162.9 173.295 162.522 173.366 162.139 173.364C161.757 173.362 161.379 173.287 161.027 173.143L70.8802 135.654L4.99338 108.254H4.87847C3.81332 108.256 2.79215 108.668 2.03898 109.402C1.28581 110.135 0.862145 111.13 0.860962 112.167ZM2.00885 112.167C2.01055 111.445 2.2978 110.752 2.81088 110.232C3.32396 109.711 4.02338 109.403 4.76359 109.372L70.8802 136.867L160.574 174.171C161.571 174.579 162.694 174.585 163.696 174.188L256.259 136.783L324.092 109.372C324.833 109.401 325.534 109.708 326.049 110.229C326.563 110.75 326.851 111.444 326.852 112.167V282.087C326.852 282.829 326.549 283.539 326.011 284.063C325.473 284.587 324.744 284.882 323.983 284.882H4.87847C4.11748 284.882 3.38776 284.587 2.84966 284.063C2.31156 283.539 2.00914 282.829 2.00885 282.087V112.167Z" fill="#3F3D56"/>
<path d="M90.186 58.4808H153.318C154.536 58.4808 155.704 58.0097 156.565 57.1711C157.426 56.3325 157.91 55.1951 157.91 54.0092C157.91 52.8232 157.426 51.6859 156.565 50.8473C155.704 50.0087 154.536 49.5376 153.318 49.5376H90.186C88.9682 49.5376 87.8004 50.0087 86.9393 50.8473C86.0783 51.6859 85.5945 52.8232 85.5945 54.0092C85.5945 55.1951 86.0783 56.3325 86.9393 57.1711C87.8004 58.0097 88.9682 58.4808 90.186 58.4808Z" fill="#EF9273"/>
<path d="M90.2238 39.4764H120.642C121.86 39.4764 123.028 39.0053 123.889 38.1667C124.75 37.3281 125.233 36.1907 125.233 35.0048C125.233 33.8189 124.75 32.6815 123.889 31.8429C123.028 31.0043 121.86 30.5332 120.642 30.5332H90.2238C89.0061 30.5332 87.8383 31.0043 86.9772 31.8429C86.1162 32.6815 85.6324 33.8189 85.6324 35.0048C85.6324 36.1907 86.1162 37.3281 86.9772 38.1667C87.8383 39.0053 89.0061 39.4764 90.2238 39.4764Z" fill="#EF9273"/>
<path d="M116.352 103.197H212.771C213.989 103.197 215.157 102.725 216.018 101.887C216.879 101.048 217.363 99.9109 217.363 98.725C217.363 97.5391 216.879 96.4017 216.018 95.5631C215.157 94.7245 213.989 94.2534 212.771 94.2534H116.352C115.134 94.2534 113.966 94.7245 113.105 95.5631C112.244 96.4017 111.76 97.5391 111.76 98.725C111.76 99.9109 112.244 101.048 113.105 101.887C113.966 102.725 115.134 103.197 116.352 103.197Z" fill="#CCCCCC"/>
<path d="M116.352 123.878H212.771C213.989 123.878 215.157 123.406 216.018 122.568C216.879 121.729 217.363 120.592 217.363 119.406C217.363 118.22 216.879 117.083 216.018 116.244C215.157 115.405 213.989 114.934 212.771 114.934H116.352C115.134 114.934 113.966 115.405 113.105 116.244C112.244 117.083 111.76 118.22 111.76 119.406C111.76 120.592 112.244 121.729 113.105 122.568C113.966 123.406 115.134 123.878 116.352 123.878Z" fill="#CCCCCC"/>
</svg>
