<svg width="20" height="20" viewBox="0 0 20 20" fill="none" xmlns="http://www.w3.org/2000/svg">
<path d="M6.24999 7.50001H2.91666C2.80615 7.50001 2.70017 7.54391 2.62203 7.62205C2.54389 7.70019 2.49999 7.80617 2.49999 7.91667V17.9167C2.49999 18.0272 2.54389 18.1332 2.62203 18.2113C2.70017 18.2894 2.80615 18.3333 2.91666 18.3333H6.24999C6.3605 18.3333 6.46648 18.2894 6.54462 18.2113C6.62276 18.1332 6.66666 18.0272 6.66666 17.9167V7.91667C6.66666 7.80617 6.62276 7.70019 6.54462 7.62205C6.46648 7.54391 6.3605 7.50001 6.24999 7.50001ZM5.83332 17.5H3.33332V8.33334H5.83332V17.5ZM15 7.50001C14.0958 7.50001 13.2167 7.79834 12.5 8.34917V7.91667C12.5 7.80617 12.4561 7.70019 12.3779 7.62205C12.2998 7.54391 12.1938 7.50001 12.0833 7.50001H8.74999C8.63948 7.50001 8.5335 7.54391 8.45536 7.62205C8.37722 7.70019 8.33332 7.80617 8.33332 7.91667V17.9167C8.33332 18.0272 8.37722 18.1332 8.45536 18.2113C8.5335 18.2894 8.63948 18.3333 8.74999 18.3333H12.0833C12.1938 18.3333 12.2998 18.2894 12.3779 18.2113C12.4561 18.1332 12.5 18.0272 12.5 17.9167V13.3333C12.5 13.0018 12.6317 12.6839 12.8661 12.4495C13.1005 12.215 13.4185 12.0833 13.75 12.0833C14.0815 12.0833 14.3995 12.215 14.6339 12.4495C14.8683 12.6839 15 13.0018 15 13.3333V17.9167C15 18.0272 15.0439 18.1332 15.122 18.2113C15.2002 18.2894 15.3061 18.3333 15.4167 18.3333H18.75C18.8605 18.3333 18.9665 18.2894 19.0446 18.2113C19.1228 18.1332 19.1667 18.0272 19.1667 17.9167V11.6667C19.1653 10.562 18.7259 9.50297 17.9448 8.72186C17.1637 7.94074 16.1047 7.50133 15 7.50001ZM18.3333 17.5H15.8333V13.3333C15.8333 12.7808 15.6138 12.2509 15.2231 11.8602C14.8324 11.4695 14.3025 11.25 13.75 11.25C13.1975 11.25 12.6676 11.4695 12.2768 11.8602C11.8861 12.2509 11.6667 12.7808 11.6667 13.3333V17.5H9.16666V8.33334H11.6667V9.33584C11.6666 9.42214 11.6934 9.50631 11.7433 9.57674C11.7932 9.64717 11.8637 9.70037 11.9451 9.729C12.0265 9.75763 12.1148 9.76028 12.1978 9.73657C12.2807 9.71287 12.3543 9.66399 12.4083 9.59667C12.8363 9.05424 13.4228 8.65886 14.0862 8.46569C14.7495 8.27251 15.4566 8.29116 16.1089 8.51904C16.7612 8.74692 17.3261 9.17266 17.7248 9.73691C18.1235 10.3011 18.3363 10.9758 18.3333 11.6667V17.5ZM4.88999 1.66834C4.79207 1.66144 4.69381 1.66088 4.59582 1.66667C4.28396 1.64546 3.97107 1.68849 3.67652 1.79312C3.38197 1.89775 3.11204 2.06175 2.88345 2.27495C2.65486 2.48815 2.47248 2.74601 2.3476 3.03256C2.22273 3.31912 2.15802 3.62826 2.15749 3.94084C2.1549 4.25016 2.21588 4.55671 2.33666 4.84148C2.45743 5.12625 2.63542 5.38318 2.85958 5.59633C3.08375 5.80948 3.34931 5.9743 3.63981 6.08058C3.9303 6.18686 4.23953 6.23233 4.54832 6.21417H4.57166C4.87014 6.23508 5.16982 6.19698 5.45358 6.10207C5.73734 6.00716 5.99963 5.85728 6.22547 5.661C6.45131 5.46472 6.63628 5.22588 6.76981 4.95812C6.90335 4.69035 6.98284 4.39891 7.00374 4.10042C7.02464 3.80194 6.98655 3.50226 6.89163 3.2185C6.79672 2.93474 6.64684 2.67245 6.45056 2.44661C6.25428 2.22077 6.01544 2.0358 5.74768 1.90227C5.47992 1.76873 5.18847 1.68924 4.88999 1.66834ZM4.86082 5.38334C4.76459 5.39209 4.66772 5.39125 4.57166 5.38084H4.54832C4.34776 5.39592 4.14626 5.36901 3.95669 5.30183C3.76711 5.23466 3.59363 5.12869 3.44731 4.99069C3.30099 4.8527 3.18505 4.68571 3.1069 4.50039C3.02874 4.31507 2.99009 4.11549 2.99341 3.9144C2.99672 3.7133 3.04193 3.5151 3.12616 3.33246C3.21038 3.14981 3.33176 2.98674 3.48254 2.85364C3.63333 2.72055 3.81022 2.62036 4.0019 2.55947C4.19359 2.49858 4.39587 2.47833 4.59582 2.50001C4.97818 2.46487 5.35883 2.58305 5.65404 2.82857C5.94926 3.07409 6.13485 3.42682 6.16999 3.80918C6.20513 4.19153 6.08694 4.57218 5.84143 4.8674C5.59591 5.16261 5.24318 5.3482 4.86082 5.38334Z" fill="#EF9273"/>
</svg>
