<svg width="30" height="30" viewBox="0 0 30 30" fill="none" xmlns="http://www.w3.org/2000/svg">
<path d="M15 28.125C11.519 28.125 8.18064 26.7422 5.71922 24.2808C3.25781 21.8194 1.875 18.481 1.875 15C1.875 11.519 3.25781 8.18064 5.71922 5.71922C8.18064 3.25781 11.519 1.875 15 1.875C18.481 1.875 21.8194 3.25781 24.2808 5.71922C26.7422 8.18064 28.125 11.519 28.125 15C28.125 18.481 26.7422 21.8194 24.2808 24.2808C21.8194 26.7422 18.481 28.125 15 28.125ZM15 30C18.9782 30 22.7936 28.4196 25.6066 25.6066C28.4196 22.7936 30 18.9782 30 15C30 11.0218 28.4196 7.20644 25.6066 4.3934C22.7936 1.58035 18.9782 0 15 0C11.0218 0 7.20644 1.58035 4.3934 4.3934C1.58035 7.20644 0 11.0218 0 15C0 18.9782 1.58035 22.7936 4.3934 25.6066C7.20644 28.4196 11.0218 30 15 30V30Z" fill="#EF9273"/>
<path d="M11.7581 9.47804C11.9115 9.39907 12.0836 9.36395 12.2556 9.37652C12.4277 9.38909 12.5929 9.44887 12.7331 9.54929L19.2956 14.2368C19.4172 14.3235 19.5162 14.438 19.5846 14.5707C19.6529 14.7035 19.6886 14.8506 19.6886 14.9999C19.6886 15.1492 19.6529 15.2964 19.5846 15.4291C19.5162 15.5618 19.4172 15.6763 19.2956 15.763L12.7331 20.4505C12.5929 20.5509 12.4278 20.6106 12.2559 20.6232C12.0839 20.6357 11.9119 20.6007 11.7586 20.5218C11.6053 20.4429 11.4767 20.3233 11.387 20.1761C11.2973 20.0289 11.2499 19.8598 11.25 19.6874V10.3124C11.2498 10.1401 11.2972 9.97101 11.3868 9.82381C11.4764 9.67661 11.6049 9.55697 11.7581 9.47804V9.47804Z" fill="#EF9273"/>
</svg>
