<svg width="70" height="70" viewBox="0 0 70 70" fill="none" xmlns="http://www.w3.org/2000/svg">
<path d="M22.1462 52.4998H37.3494C45.2419 52.4998 49.9844 48.5273 49.9844 42.0173C49.9844 37.196 46.655 33.6348 41.6544 33.1185V32.681C45.2944 32.0685 48.1381 28.6123 48.1381 24.736C48.1381 19.0485 43.96 15.5048 37.0169 15.5048H22.1462V52.4998ZM27.8906 31.1716V20.3785H35.6781C39.935 20.3785 42.4244 22.3779 42.4244 25.7904C42.4244 29.2991 39.7819 31.1716 34.7069 31.1716H27.8906ZM27.8906 47.6304V35.7085H35.8619C41.2694 35.7085 44.1175 37.7341 44.1175 41.606C44.1175 45.526 41.3744 47.6304 36.1944 47.6304H27.8906V47.6304Z" fill="black"/>
<path d="M0 17.5C0 12.8587 1.84375 8.40752 5.12563 5.12563C8.40752 1.84375 12.8587 0 17.5 0L52.5 0C57.1413 0 61.5925 1.84375 64.8744 5.12563C68.1563 8.40752 70 12.8587 70 17.5V52.5C70 57.1413 68.1563 61.5925 64.8744 64.8744C61.5925 68.1563 57.1413 70 52.5 70H17.5C12.8587 70 8.40752 68.1563 5.12563 64.8744C1.84375 61.5925 0 57.1413 0 52.5V17.5ZM17.5 4.375C14.019 4.375 10.6806 5.75781 8.21922 8.21922C5.75781 10.6806 4.375 14.019 4.375 17.5V52.5C4.375 55.981 5.75781 59.3194 8.21922 61.7808C10.6806 64.2422 14.019 65.625 17.5 65.625H52.5C55.981 65.625 59.3194 64.2422 61.7808 61.7808C64.2422 59.3194 65.625 55.981 65.625 52.5V17.5C65.625 14.019 64.2422 10.6806 61.7808 8.21922C59.3194 5.75781 55.981 4.375 52.5 4.375H17.5Z" fill="black"/>
</svg>
