<svg width="65" height="98" viewBox="0 0 65 98" fill="none" xmlns="http://www.w3.org/2000/svg">
<path fill-rule="evenodd" clip-rule="evenodd" d="M17.936 0C7.99519 0 0.000257986 8.34024 0.000257986 18.5573C0.000257986 24.7689 2.95773 30.2857 7.50363 33.6535C5.16073 35.4088 3.26165 37.6886 1.95863 40.3102C0.65561 42.9317 -0.0151019 45.8221 0.000257986 48.7496C0.000257986 54.9652 2.95773 60.4779 7.50363 63.8457C5.16073 65.601 3.26165 67.8809 1.95863 70.5024C0.65561 73.124 -0.0151019 76.0143 0.000257986 78.9418C0.000257986 89.1589 7.99519 97.4992 17.936 97.4992C27.8728 97.4992 35.8718 89.1589 35.8718 78.9418V63.2526C39.0135 65.872 42.9735 67.308 47.0639 67.311C57.0048 67.3069 64.9997 58.9667 64.9997 48.7496C65.016 45.8219 64.3457 42.9312 63.0426 40.3095C61.7396 37.6878 59.84 35.4081 57.4963 33.6535C59.8392 31.8981 61.7383 29.6183 63.0413 26.9968C64.3444 24.3752 65.0151 21.4848 64.9997 18.5573C64.9997 8.34024 57.0048 0 47.0639 0H17.936V0ZM6.73989 18.5573C6.73989 12.094 11.7855 6.91838 17.936 6.91838H29.1281V30.1963H17.936C11.7855 30.1963 6.73989 25.0167 6.73989 18.5573V18.5573ZM47.0639 30.1922H35.8718V6.91432H47.0639C53.2186 6.91432 58.2601 12.094 58.2601 18.5573C58.2601 25.0167 53.2186 30.1922 47.0639 30.1922ZM6.74395 48.7496C6.74395 42.2903 11.7895 37.1106 17.9401 37.1106H29.1322V60.3886H17.936C11.7814 60.3886 6.73989 55.2089 6.73989 48.7496H6.74395ZM35.8718 48.7496C35.8718 42.2903 40.9174 37.1106 47.068 37.1106C53.2226 37.1106 58.2641 42.2862 58.2641 48.7496C58.2641 55.2089 53.2226 60.3886 47.068 60.3886C40.9174 60.3886 35.8759 55.213 35.8759 48.7496H35.8718ZM6.74395 78.9418C6.74395 72.4825 11.7895 67.3069 17.9401 67.3069H29.1322V78.9418C29.1322 85.4052 24.0947 90.5808 17.9401 90.5808C11.7895 90.5808 6.74395 85.4052 6.74395 78.9418Z" fill="black"/>
</svg>
