<svg width="75" height="75" viewBox="0 0 75 75" fill="none" xmlns="http://www.w3.org/2000/svg">
<path d="M27.1876 13.9375L33.8594 20.6093M6.57819 34.5625C5.86706 35.3789 5.47534 36.4251 5.47534 37.5078C5.47534 38.5905 5.86706 39.6367 6.57819 40.4531L34.5626 68.4375C35.379 69.1486 36.4252 69.5403 37.5079 69.5403C38.5906 69.5403 39.6367 69.1486 40.4532 68.4375L68.4219 40.4531C69.1393 39.6396 69.5351 38.5923 69.5351 37.5078C69.5351 36.4232 69.1393 35.3759 68.4219 34.5625L40.4532 6.5781C39.6486 5.84316 38.5892 5.4508 37.5001 5.48435C36.4135 5.45581 35.359 5.85405 34.5626 6.59372L6.57819 34.5625ZM41.1407 27.8906L47.1094 33.8593L41.1407 27.8906Z" stroke="black" stroke-width="4" stroke-linecap="round" stroke-linejoin="round"/>
<path d="M37.5 55.7969C40.3477 55.7969 42.6562 53.4883 42.6562 50.6406C42.6562 47.7929 40.3477 45.4844 37.5 45.4844C34.6523 45.4844 32.3438 47.7929 32.3438 50.6406C32.3438 53.4883 34.6523 55.7969 37.5 55.7969Z" stroke="black" stroke-linecap="round" stroke-linejoin="round"/>
<path d="M37.5 29.4062C40.3477 29.4062 42.6562 27.0977 42.6562 24.25C42.6562 21.4023 40.3477 19.0938 37.5 19.0938C34.6523 19.0938 32.3438 21.4023 32.3438 24.25C32.3438 27.0977 34.6523 29.4062 37.5 29.4062Z" stroke="black" stroke-linecap="round" stroke-linejoin="round"/>
<path d="M50.75 42.6562C53.5977 42.6562 55.9062 40.3477 55.9062 37.5C55.9062 34.6523 53.5977 32.3438 50.75 32.3438C47.9023 32.3438 45.5938 34.6523 45.5938 37.5C45.5938 40.3477 47.9023 42.6562 50.75 42.6562Z" stroke="black" stroke-linecap="round" stroke-linejoin="round"/>
<path d="M37.5 45.4844V29.4062" stroke="black" stroke-width="2" stroke-linecap="round" stroke-linejoin="round"/>
</svg>
