<svg width="100" height="100" viewBox="0 0 100 100" fill="none" xmlns="http://www.w3.org/2000/svg">
<path d="M57.5 47.5C57.5 45.5109 58.2902 43.6032 59.6967 42.1967C61.1032 40.7902 63.0109 40 65 40H72.5C73.163 40 73.7989 40.2634 74.2678 40.7322C74.7366 41.2011 75 41.837 75 42.5C75 43.163 74.7366 43.7989 74.2678 44.2678C73.7989 44.7366 73.163 45 72.5 45H65C64.337 45 63.7011 45.2634 63.2322 45.7322C62.7634 46.2011 62.5 46.837 62.5 47.5V52.5C62.5 53.163 62.7634 53.7989 63.2322 54.2678C63.7011 54.7366 64.337 55 65 55H67.5C69.4891 55 71.3968 55.7902 72.8033 57.1967C74.2098 58.6032 75 60.5109 75 62.5V67.5C75 69.4891 74.2098 71.3968 72.8033 72.8033C71.3968 74.2098 69.4891 75 67.5 75H60C59.337 75 58.7011 74.7366 58.2322 74.2678C57.7634 73.7989 57.5 73.163 57.5 72.5C57.5 71.837 57.7634 71.2011 58.2322 70.7322C58.7011 70.2634 59.337 70 60 70H67.5C68.163 70 68.7989 69.7366 69.2678 69.2678C69.7366 68.7989 70 68.163 70 67.5V62.5C70 61.837 69.7366 61.2011 69.2678 60.7322C68.7989 60.2634 68.163 60 67.5 60H65C63.0109 60 61.1032 59.2098 59.6967 57.8033C58.2902 56.3968 57.5 54.4891 57.5 52.5V47.5ZM55 42.5C55 41.837 54.7366 41.2011 54.2678 40.7322C53.7989 40.2634 53.163 40 52.5 40C51.837 40 51.2011 40.2634 50.7322 40.7322C50.2634 41.2011 50 41.837 50 42.5V67.5C50 68.163 49.7366 68.7989 49.2678 69.2678C48.7989 69.7366 48.163 70 47.5 70H42.5C41.837 70 41.2011 70.2634 40.7322 70.7322C40.2634 71.2011 40 71.837 40 72.5C40 73.163 40.2634 73.7989 40.7322 74.2678C41.2011 74.7366 41.837 75 42.5 75H47.5C49.4891 75 51.3968 74.2098 52.8033 72.8033C54.2098 71.3968 55 69.4891 55 67.5V42.5ZM15 30V70C15 73.9782 16.5804 77.7936 19.3934 80.6066C22.2064 83.4196 26.0218 85 30 85H70C73.9782 85 77.7936 83.4196 80.6066 80.6066C83.4196 77.7936 85 73.9782 85 70V30C85 26.0218 83.4196 22.2064 80.6066 19.3934C77.7936 16.5804 73.9782 15 70 15H30C26.0218 15 22.2064 16.5804 19.3934 19.3934C16.5804 22.2064 15 26.0218 15 30V30ZM30 20H70C72.6522 20 75.1957 21.0536 77.0711 22.9289C78.9464 24.8043 80 27.3478 80 30V70C80 72.6522 78.9464 75.1957 77.0711 77.0711C75.1957 78.9464 72.6522 80 70 80H30C27.3478 80 24.8043 78.9464 22.9289 77.0711C21.0536 75.1957 20 72.6522 20 70V30C20 27.3478 21.0536 24.8043 22.9289 22.9289C24.8043 21.0536 27.3478 20 30 20V20Z" fill="black"/>
</svg>
