<svg width="91" height="91" viewBox="0 0 91 91" fill="none" xmlns="http://www.w3.org/2000/svg">
<path d="M45.5 7.01459C44.4763 7.01459 43.4146 7.28 42.5425 7.77292L14.3325 24.0771C12.5125 25.1388 11.375 27.1104 11.375 29.2338V61.7663C11.375 63.8896 12.5125 65.8613 14.3325 66.9229L21.7263 71.1696C25.3283 72.9138 26.5417 72.9517 28.21 72.9517C33.5183 72.9517 36.5896 69.7288 36.5896 64.1171V32.0017C36.5896 31.5467 36.2104 31.1675 35.7554 31.1675H32.2292C31.7363 31.1675 31.3571 31.5467 31.3571 32.0017V64.1171C31.3571 66.6196 28.7788 69.0842 24.6458 66.9988L16.8729 62.5625C16.7453 62.4723 16.6409 62.3531 16.5683 62.2147C16.4958 62.0762 16.4573 61.9225 16.4558 61.7663V29.2338C16.4558 28.8925 16.6075 28.5892 16.8729 28.4375L45.0829 12.1713C45.3104 12.0196 45.6896 12.0196 45.9171 12.1713L74.1271 28.4375C74.3925 28.5892 74.5442 28.8925 74.5442 29.2338V61.7663C74.5442 62.0696 74.3925 62.3729 74.1271 62.5625L45.9171 78.8288C45.6896 78.9804 45.3104 78.9804 45.045 78.8288L37.9167 74.5063C37.6133 74.3925 37.31 74.3546 37.1204 74.4683C35.1108 75.6058 34.7317 75.8333 32.8738 76.4021C32.4188 76.5538 31.6983 76.8192 33.1392 77.6154L42.5425 83.1892C43.4525 83.72 44.4383 83.9854 45.5 83.9854C46.5617 83.9854 47.5475 83.72 48.4575 83.1892L76.6675 66.9229C78.4875 65.8613 79.625 63.8896 79.625 61.7663V29.2338C79.625 27.1104 78.4875 25.1388 76.6675 24.0771L48.4575 7.77292C47.5854 7.28 46.5617 7.01459 45.5 7.01459M53.0833 30.3333C45.045 30.3333 40.2296 33.7079 40.2296 39.3954C40.2296 45.5 45.0071 47.2821 52.7421 48.0404C61.9558 48.9504 62.6763 50.3154 62.6763 52.1354C62.6763 55.2825 60.1358 56.6096 54.2208 56.6096C46.7133 56.6096 45.1208 54.7517 44.5521 51.0358C44.5122 50.8438 44.4076 50.6712 44.2557 50.547C44.1039 50.4228 43.9141 50.3544 43.7179 50.3533H40.0779C39.6229 50.3533 39.2817 50.6946 39.2817 51.1875C39.2817 55.8892 41.86 61.5767 54.2208 61.5767C63.1313 61.5767 68.25 58.0504 68.25 51.9079C68.25 45.8033 64.155 44.2108 55.4721 43.0354C46.7133 41.8979 45.8413 41.2913 45.8413 39.2438C45.8413 37.5375 46.5996 35.2625 53.0833 35.2625C58.7708 35.2625 61.0079 36.5138 61.88 40.4192C61.9558 40.7983 62.2971 41.0638 62.6763 41.0638H66.3542C66.5438 41.0638 66.7712 40.9879 66.9229 40.7983C67.0746 40.6467 67.1883 40.4192 67.1125 40.1917C66.5817 33.4425 62.1075 30.3333 53.0833 30.3333Z" fill="black"/>
</svg>
