<svg width="81" height="73" viewBox="0 0 81 73" fill="none" xmlns="http://www.w3.org/2000/svg">
<path d="M81 36.0754C81 30.7091 74.2804 25.623 63.9765 22.4707C66.3559 11.9711 65.2995 3.61462 60.642 0.93825C59.5135 0.306181 58.2362 -0.0119741 56.943 0.016875V3.69563C57.7024 3.69563 58.3133 3.8475 58.8263 4.12763C61.0706 5.41688 62.046 10.3174 61.2866 16.6253C61.1044 18.1778 60.8074 19.8112 60.4429 21.4785C56.9924 20.647 53.4904 20.0461 49.9601 19.6796C47.857 16.7781 45.5625 14.0202 43.092 11.4244C48.4751 6.42263 53.5275 3.68213 56.9633 3.68213V0C52.4205 0 46.4771 3.23662 40.4662 8.84925C34.4587 3.27375 28.512 0.0674999 23.9726 0.0674999V3.74625C27.3915 3.74625 32.4608 6.47325 37.8439 11.4412C35.532 13.8712 33.2201 16.6252 31.023 19.6796C27.4854 20.042 23.9772 20.6487 20.5234 21.4954C20.1584 19.9152 19.8711 18.318 19.6628 16.7096C18.8865 10.3984 19.845 5.49788 22.0759 4.19513C22.5686 3.89813 23.2133 3.76313 23.9726 3.76313V0.0843749C22.5889 0.0843749 21.33 0.381375 20.2433 1.00575C15.6026 3.68212 14.5631 12.0184 16.956 22.4876C6.68588 25.6601 0 30.726 0 36.0754C0 41.4416 6.71963 46.5277 17.0235 49.6766C14.6441 60.1796 15.7005 68.5361 20.358 71.2091C21.4313 71.8369 22.6867 72.1339 24.0705 72.1339C28.6132 72.1339 34.5566 68.8972 40.5675 63.2846C46.575 68.8635 52.5184 72.0664 57.0611 72.0664C58.3642 72.0939 59.6512 71.7748 60.7905 71.1416C65.4311 68.4686 66.4706 60.1324 64.0778 49.6631C74.3141 46.5109 81 41.4248 81 36.0754ZM59.5012 25.0627C58.8599 27.2695 58.1166 29.4454 57.2737 31.5832C55.8939 28.8993 54.3789 26.2871 52.7344 23.7566C55.08 24.1042 57.3413 24.5329 59.5046 25.0627H59.5012ZM51.9413 42.6465C50.7051 44.8047 49.3775 46.9092 47.9621 48.9544C43.0085 49.391 38.0263 49.3966 33.0716 48.9713C30.2297 44.9117 27.7443 40.614 25.6433 36.126C27.7411 31.6275 30.2159 27.3146 33.0412 23.2335C37.9937 22.796 42.9748 22.7892 47.9284 23.2132C49.2986 25.1775 50.6385 27.2767 51.9244 29.4907C53.1799 31.6507 54.3206 33.8445 55.3601 36.0585C54.3091 38.2994 53.1685 40.4971 51.9413 42.6465V42.6465ZM57.2737 40.5C58.1647 42.7106 58.9275 44.9246 59.5519 47.0711C57.3919 47.601 55.1104 48.0465 52.7513 48.3908C54.3889 45.8373 55.8983 43.2038 57.2737 40.5V40.5ZM40.5338 58.1175C38.9981 56.5312 37.4625 54.7661 35.9437 52.8322C37.4287 52.8997 38.9475 52.9504 40.4831 52.9504C42.0356 52.9504 43.5712 52.9166 45.0731 52.8322C43.5881 54.7661 42.0525 56.5312 40.5338 58.1175ZM28.2487 48.3908C25.9731 48.061 23.714 47.6263 21.4785 47.088C22.0894 44.9584 22.8488 42.7613 23.706 40.5675C24.3844 41.8838 25.0965 43.2068 25.8727 44.5298C26.649 45.8494 27.4387 47.1386 28.2487 48.3908ZM40.4494 14.0332C41.985 15.6195 43.5206 17.3846 45.0394 19.3185C43.5544 19.251 42.0356 19.2004 40.5 19.2004C38.9475 19.2004 37.4119 19.2341 35.91 19.3185C37.395 17.3846 38.9306 15.6195 40.4494 14.0332ZM28.2319 23.76C26.5946 26.3079 25.0852 28.9358 23.7094 31.6339C22.8427 29.4822 22.0824 27.2892 21.4312 25.0627C23.5912 24.5497 25.8727 24.1042 28.2319 23.76ZM13.2907 44.4285C7.44525 41.9377 3.66525 38.6674 3.66525 36.0754C3.66525 33.4834 7.44525 30.1961 13.2907 27.7222C14.7082 27.1114 16.2608 26.5646 17.8639 26.055C18.8055 29.2883 20.0441 32.6565 21.5764 36.1091C20.1297 39.3565 18.9063 42.6987 17.9145 46.1126C16.3466 45.6272 14.8035 45.0651 13.2907 44.4285V44.4285ZM22.1738 68.0197C19.9294 66.7372 18.954 61.83 19.7134 55.5255C19.8956 53.973 20.1926 52.3361 20.5571 50.6689C23.7904 51.462 27.324 52.0729 31.0399 52.4711C33.1431 55.3726 35.4376 58.1304 37.908 60.7264C32.5249 65.7281 27.4725 68.4686 24.0368 68.4686C23.3886 68.4757 22.7486 68.3227 22.1738 68.0231V68.0197ZM61.3372 55.4411C62.1135 61.749 61.155 66.6529 58.9241 67.9556C58.4314 68.2526 57.7867 68.3842 57.0274 68.3842C53.6085 68.3842 48.5392 65.6606 43.1561 60.6893C45.6163 58.1042 47.8953 55.3527 49.977 52.4542C53.5146 52.0919 57.0228 51.4852 60.4766 50.6385C60.858 52.3057 61.1516 53.9055 61.3372 55.4411V55.4411ZM67.6924 44.4285C66.2749 45.0394 64.7224 45.5861 63.1192 46.0957C62.11 42.6644 60.8697 39.3054 59.4067 36.0416C60.9255 32.6092 62.1439 29.2579 63.0686 26.0381C64.6415 26.5252 66.1901 27.0872 67.7093 27.7222C73.5548 30.213 77.3347 33.4834 77.3347 36.0754C77.3179 38.6674 73.5379 41.9546 67.6924 44.4285V44.4285Z" fill="black"/>
<path d="M40.483 43.6219C42.4845 43.6219 44.404 42.8268 45.8192 41.4116C47.2344 39.9963 48.0295 38.0768 48.0295 36.0754C48.0295 34.0739 47.2344 32.1544 45.8192 30.7392C44.404 29.3239 42.4845 28.5289 40.483 28.5289C38.4816 28.5289 36.5621 29.3239 35.1468 30.7392C33.7316 32.1544 32.9365 34.0739 32.9365 36.0754C32.9365 38.0768 33.7316 39.9963 35.1468 41.4116C36.5621 42.8268 38.4816 43.6219 40.483 43.6219V43.6219Z" fill="black"/>
</svg>
