<svg width="80" height="80" viewBox="0 0 80 80" fill="none" xmlns="http://www.w3.org/2000/svg">
<path d="M66.6667 42.6666V41.776C66.6667 37.8506 63.4827 34.6666 59.5573 34.6666H53.3333C51.2116 34.6666 49.1768 35.5095 47.6765 37.0098C46.1762 38.5101 45.3333 40.5449 45.3333 42.6666C45.3333 44.7884 46.1762 46.8232 47.6765 48.3235C49.1768 49.8238 51.2116 50.6666 53.3333 50.6666H58.6667C60.7884 50.6666 62.8232 51.5095 64.3235 53.0098C65.8238 54.5101 66.6667 56.5449 66.6667 58.6666C66.6667 60.7884 65.8238 62.8232 64.3235 64.3235C62.8232 65.8238 60.7884 66.6666 58.6667 66.6666H53.3333C51.2116 66.6666 49.1768 65.8238 47.6765 64.3235C46.1762 62.8232 45.3333 60.7884 45.3333 58.6666M42.6667 34.6666H16M29.3333 34.6666V69.3333M2.66667 2.66663H77.3333V77.3333H2.66667V2.66663Z" stroke="black" stroke-width="3"/>
</svg>
