<svg width="30" height="30" viewBox="0 0 30 30" fill="none" xmlns="http://www.w3.org/2000/svg">
<path d="M19.6463 3.08806C19.6825 2.97036 19.6951 2.84668 19.6835 2.72409C19.6719 2.60151 19.6363 2.4824 19.5787 2.37358C19.521 2.26476 19.4425 2.16836 19.3477 2.08988C19.2528 2.0114 19.1434 1.95238 19.0257 1.91618C18.908 1.87998 18.7843 1.86733 18.6617 1.87893C18.5391 1.89053 18.42 1.92616 18.3112 1.98379C18.2024 2.04142 18.106 2.11992 18.0275 2.21481C17.949 2.30969 17.89 2.41911 17.8538 2.53681L10.3538 26.9118C10.2807 27.1495 10.305 27.4065 10.4214 27.6263C10.5378 27.846 10.7367 28.0106 10.9744 28.0837C11.2121 28.1568 11.4691 28.1325 11.6889 28.0161C11.9086 27.8997 12.0732 27.7008 12.1463 27.4631L19.6463 3.08806V3.08806ZM9.10128 7.77368C9.18858 7.86077 9.25785 7.96422 9.30511 8.07812C9.35238 8.19201 9.3767 8.31412 9.3767 8.43743C9.3767 8.56074 9.35238 8.68285 9.30511 8.79674C9.25785 8.91064 9.18858 9.01409 9.10128 9.10118L3.20065 14.9999L9.10128 20.8987C9.27732 21.0747 9.37621 21.3135 9.37621 21.5624C9.37621 21.8114 9.27732 22.0501 9.10128 22.2262C8.92524 22.4022 8.68648 22.5011 8.43753 22.5011C8.18857 22.5011 7.94982 22.4022 7.77378 22.2262L1.21128 15.6637C1.12397 15.5766 1.0547 15.4731 1.00744 15.3592C0.96018 15.2453 0.935852 15.1232 0.935852 14.9999C0.935852 14.8766 0.96018 14.7545 1.00744 14.6406C1.0547 14.5267 1.12397 14.4233 1.21128 14.3362L7.77378 7.77368C7.86086 7.68637 7.96432 7.61711 8.07821 7.56984C8.19211 7.52258 8.31421 7.49825 8.43753 7.49825C8.56084 7.49825 8.68294 7.52258 8.79684 7.56984C8.91074 7.61711 9.01419 7.68637 9.10128 7.77368V7.77368ZM20.8988 7.77368C20.8115 7.86077 20.7422 7.96422 20.6949 8.07812C20.6477 8.19201 20.6234 8.31412 20.6234 8.43743C20.6234 8.56074 20.6477 8.68285 20.6949 8.79674C20.7422 8.91064 20.8115 9.01409 20.8988 9.10118L26.7994 14.9999L20.8988 20.8987C20.8116 20.9858 20.7425 21.0893 20.6953 21.2032C20.6481 21.3171 20.6238 21.4392 20.6238 21.5624C20.6238 21.6857 20.6481 21.8078 20.6953 21.9216C20.7425 22.0355 20.8116 22.139 20.8988 22.2262C20.9859 22.3133 21.0894 22.3825 21.2033 22.4297C21.3172 22.4768 21.4393 22.5011 21.5625 22.5011C21.6858 22.5011 21.8079 22.4768 21.9217 22.4297C22.0356 22.3825 22.1391 22.3133 22.2263 22.2262L28.7888 15.6637C28.8761 15.5766 28.9454 15.4731 28.9926 15.3592C29.0399 15.2453 29.0642 15.1232 29.0642 14.9999C29.0642 14.8766 29.0399 14.7545 28.9926 14.6406C28.9454 14.5267 28.8761 14.4233 28.7888 14.3362L22.2263 7.77368C22.1392 7.68637 22.0357 7.61711 21.9218 7.56984C21.8079 7.52258 21.6858 7.49825 21.5625 7.49825C21.4392 7.49825 21.3171 7.52258 21.2032 7.56984C21.0893 7.61711 20.9859 7.68637 20.8988 7.77368V7.77368Z" fill="#EF9273"/>
</svg>
