<svg width="21" height="22" viewBox="0 0 21 22" fill="none" xmlns="http://www.w3.org/2000/svg">
<path d="M19.0353 4.25753C19.9453 5.34953 20.3993 6.62354 20.3993 8.07954C20.3993 13.3565 17.3973 14.9035 14.5763 15.3585C14.9403 15.9955 15.0313 16.7235 15.0313 17.4515V21.1815C15.0313 21.6365 14.7583 21.9095 14.3943 21.9095C14.2983 21.9109 14.203 21.893 14.1141 21.8569C14.0252 21.8208 13.9444 21.7672 13.8765 21.6993C13.8086 21.6314 13.755 21.5506 13.7189 21.4617C13.6828 21.3728 13.6649 21.2775 13.6663 21.1815V17.4515C13.7142 17.0702 13.6734 16.6829 13.5472 16.3199C13.4209 15.9568 13.2125 15.6278 12.9383 15.3585L13.3933 14.1755C16.2143 13.8115 19.1263 12.9015 19.1263 7.98853C19.1263 6.80553 18.6713 5.71353 17.8523 4.80353L17.6703 4.07653C18.0163 3.20458 18.0481 2.23938 17.7603 1.34653C17.3063 1.43653 16.3963 1.61953 14.8503 2.71153L14.3033 2.80153C12.154 2.2558 9.9025 2.2558 7.75327 2.80153L7.20627 2.71153C5.57027 1.71053 4.66026 1.43753 4.20427 1.43753C3.93127 2.34753 3.93127 3.34753 4.29427 4.16753L4.11327 4.89453C3.20326 5.80453 2.74827 6.98754 2.74827 8.07954C2.74827 12.9015 5.47826 13.9025 8.48026 14.2665L8.84426 15.4495C8.29827 15.9955 8.02527 16.7235 8.11627 17.4515V21.2725C8.11761 21.3685 8.0997 21.4638 8.06359 21.5527C8.02748 21.6416 7.97391 21.7224 7.90604 21.7903C7.83817 21.8582 7.75738 21.9118 7.66844 21.9479C7.57951 21.984 7.48424 22.0019 7.38826 22.0005C7.29229 22.0019 7.19702 21.984 7.10809 21.9479C7.01915 21.9118 6.93836 21.8582 6.87049 21.7903C6.80262 21.7224 6.74905 21.6416 6.71294 21.5527C6.67683 21.4638 6.65892 21.3685 6.66026 21.2725V19.1805C3.65826 19.8175 2.47527 18.2705 1.56527 17.0885C1.11027 16.5425 0.746265 16.0875 0.291265 15.9965C0.201265 15.9055 -0.072735 15.5415 0.018265 15.1775C0.109265 14.8135 0.473265 14.5405 0.838265 14.7225C1.74827 14.9045 2.29326 15.6325 2.83826 16.2695C3.65826 17.3615 4.47726 18.3615 6.93326 17.8165V17.4525C6.84326 16.7245 7.02426 15.9965 7.38826 15.3595C4.65826 14.8135 1.47427 13.2665 1.47427 8.08053C1.47427 6.62454 1.92927 5.35053 2.83927 4.25853C2.56627 2.98553 2.65727 1.62053 3.11227 0.528535L3.56727 0.164535C3.74926 0.0735346 5.02326 -0.199465 7.66026 1.43753C9.84061 0.891608 12.1219 0.891608 14.3023 1.43753C16.8513 -0.291465 18.2163 -0.0194654 18.3983 0.0725346L18.8533 0.436535C19.3083 1.71053 19.3993 2.98453 19.0353 4.25753Z" fill="#EF9273"/>
</svg>
