<svg width="75" height="57" viewBox="0 0 75 57" fill="none" xmlns="http://www.w3.org/2000/svg">
<path d="M35.3692 42.525C35.334 42.5953 35.2989 42.6516 35.3692 42.525V42.525ZM64.5601 32.3307C62.2025 32.3307 59.8777 32.8697 57.7639 33.9126C57.0725 32.5182 56.3578 31.2995 56.2406 30.3856C56.1 29.3193 55.9476 28.6865 56.1117 27.421C56.2757 26.1555 57.0139 24.3627 57.0022 24.2338C56.9905 24.1049 56.8382 23.4605 55.3266 23.4488C53.815 23.437 52.5144 23.7417 52.3621 24.1401C52.0946 24.868 51.8869 25.6165 51.741 26.3782C51.4715 27.7491 48.7202 32.6471 47.1618 35.2015C46.6462 34.2055 46.2127 33.3267 46.1189 32.6236C45.9783 31.5573 45.826 30.9246 45.99 29.6591C46.1541 28.3936 46.8923 26.6008 46.8806 26.4719C46.8688 26.343 46.7165 25.6985 45.2073 25.6868C43.6981 25.6751 42.3951 25.9798 42.2427 26.3782C42.0904 26.7766 41.9264 27.714 41.6217 28.6162C41.317 29.5185 37.6494 37.6739 36.6909 39.7948C36.1988 40.8728 35.777 41.7399 35.4723 42.3258C35.4254 42.4196 35.3903 42.4781 35.3669 42.525C35.402 42.4664 35.4254 42.4078 35.4254 42.4313C35.1677 42.9351 35.0153 43.2163 35.0153 43.2163V43.2281C34.8161 43.603 34.5935 43.9428 34.488 43.9428C34.4177 43.9428 34.2654 42.9586 34.5232 41.611C35.0739 38.7754 36.3746 34.3696 36.3628 34.2172C36.3511 34.1352 36.6089 33.3736 35.5075 32.9634C34.4412 32.5768 34.0545 33.2212 33.9607 33.2212C33.867 33.2212 33.7967 33.4556 33.7967 33.4556C33.7967 33.4556 34.9802 28.4873 31.5235 28.4873C29.3674 28.4873 26.3677 30.8543 24.8937 32.9986C23.968 33.5025 21.9643 34.5922 19.8551 35.7522L17.4296 37.088C17.371 37.0295 17.3241 36.9709 17.2655 36.9123C13.0706 32.4362 5.32762 29.2724 5.65571 23.2613C5.77289 21.0701 6.53453 15.3167 20.5464 8.33306C32.0297 2.61487 41.2092 4.18503 42.7911 7.67687C45.0643 12.6569 37.8815 21.9255 25.9576 23.2613C21.4112 23.7651 19.0231 22.0075 18.4256 21.3513C17.8045 20.66 17.7108 20.6248 17.4764 20.7537C17.0897 20.9646 17.3358 21.5739 17.4764 21.9372C17.828 22.8629 19.2927 24.5033 21.7885 25.3236C23.9797 26.0383 29.3089 26.4367 35.7512 23.9409C42.9903 21.1521 48.6265 13.3833 46.972 6.88008C45.2893 0.271351 34.331 -1.8964 23.9703 1.78292C17.7951 3.97411 11.1185 7.41909 6.31659 11.9069C0.610117 17.2502 -0.301512 21.902 0.0734511 23.8472C1.40926 30.7488 10.9216 35.2484 14.7275 38.5762L14.2002 38.8691C12.2902 39.8182 5.03937 43.6147 3.22314 47.6222C1.17256 52.1686 3.56295 55.4261 5.13077 55.8714C10.0287 57.2306 15.0415 54.7816 17.7366 50.7625C20.4316 46.7433 20.1035 41.4939 18.8614 39.1035C18.8497 39.0683 18.8263 39.0449 18.8146 39.0097C20.2206 38.1769 21.6386 37.3644 23.0681 36.5725C22.5994 37.838 22.2596 39.3613 22.0838 41.5642C21.8729 44.142 22.9392 47.4815 24.3218 48.7939C24.9312 49.3681 25.667 49.3798 26.1264 49.3798C27.7434 49.3798 28.4699 48.044 29.2784 46.4504C30.2744 44.5053 31.1532 42.2438 31.1532 42.2438C31.1532 42.2438 30.0518 48.3604 33.0632 48.3604C34.1646 48.3604 35.2661 46.9425 35.7582 46.2161V46.2278C35.7582 46.2278 35.7817 46.1809 35.8402 46.0872C35.9574 45.9114 36.016 45.8059 36.016 45.8059V45.7708C36.4613 45.0091 37.4338 43.2632 38.8985 40.3807C40.7968 36.6545 42.6107 32.0026 42.6107 32.0026C42.7864 33.0244 43.0302 34.0344 43.3372 35.0257C43.6653 36.1389 44.3566 37.3575 44.9073 38.541C44.4621 39.1503 44.1925 39.5019 44.1925 39.5019C44.1925 39.5112 44.1972 39.5183 44.2043 39.5253C43.8527 39.994 43.4543 40.4979 43.0442 40.99C41.5467 42.7711 39.7633 44.8099 39.5289 45.3958C39.2477 46.0872 39.318 46.6027 39.857 47.0011C40.2554 47.3058 40.9585 47.3527 41.6967 47.2941C43.0442 47.2003 43.9933 46.8722 44.4503 46.6613C45.2932 46.3593 46.0899 45.9413 46.8173 45.4193C48.282 44.3412 49.1725 42.7945 49.0905 40.7557C49.0436 39.6308 48.6804 38.5059 48.2351 37.4513C48.364 37.2638 48.5046 37.0646 48.6335 36.8654C50.1584 34.5902 51.5323 32.2173 52.7464 29.7622C52.9222 30.784 53.1635 31.794 53.4729 32.7853C53.7541 33.7345 54.3048 34.7773 54.8087 35.7968C52.6292 37.5661 51.2817 39.6167 50.8153 40.9642C49.9482 43.4601 50.6279 44.585 51.9051 44.8427C52.4792 44.9599 53.2995 44.6904 53.9088 44.4326C54.8134 44.1303 55.6664 43.6921 56.4374 43.132C57.9021 42.054 59.32 40.5424 59.2239 38.4918C59.1887 37.5661 58.9309 36.6404 58.5911 35.7499C60.4308 34.9765 62.8212 34.5547 65.8678 34.9062C72.3921 35.6679 73.6693 39.7456 73.4233 41.4446C73.1772 43.1437 71.8062 44.0928 71.3492 44.374C70.8923 44.6553 70.7517 44.7607 70.7868 44.9716C70.8454 45.2763 71.0563 45.2646 71.443 45.1943C71.982 45.1005 74.8645 43.8116 74.9934 40.6596C75.1809 36.6756 71.3492 32.2932 64.5648 32.3284L64.5601 32.3307ZM14.2705 49.2861C12.1145 51.6413 9.09366 52.5318 7.793 51.7819C6.39861 50.9711 6.94934 47.505 9.60689 44.9951C11.2239 43.4718 13.3096 42.0657 14.6923 41.1986C15.0087 41.0111 15.4657 40.7299 16.0281 40.3901C16.0738 40.3608 16.1207 40.3334 16.1687 40.308C16.2742 40.2377 16.3914 40.1791 16.5086 40.1088C17.4788 43.671 16.5437 46.8113 14.2705 49.2837V49.2861ZM30.0143 38.5762C29.2643 40.4158 27.6848 45.1029 26.7216 44.8568C25.9014 44.6459 25.3975 41.072 26.5576 37.5567C27.1434 35.7874 28.3855 33.6782 29.1237 32.858C30.3072 31.5339 31.6078 31.1121 31.9125 31.6394C32.3226 32.3307 30.483 37.4279 30.0143 38.5762ZM43.0208 44.7865C42.7044 44.9506 42.4115 45.056 42.2709 44.974C42.1654 44.9154 42.3998 44.6928 42.3998 44.6928C42.3998 44.6928 44.0285 42.9468 44.673 42.15C45.0479 41.6813 45.4815 41.1306 45.9502 40.5213C45.9502 40.5799 45.9619 40.6385 45.9619 40.7088C45.9478 42.8062 43.9324 44.2241 43.0184 44.7865H43.0208ZM53.051 42.5016C52.8167 42.3375 52.8518 41.7868 53.6369 40.076C53.9416 39.4081 54.6446 38.2832 55.8633 37.2052C56.0015 37.613 56.0765 38.0395 56.0859 38.4707C56.0742 41.1072 54.1877 42.0915 53.051 42.5016V42.5016Z" fill="black"/>
</svg>
