<svg width="75" height="75" viewBox="0 0 75 75" fill="none" xmlns="http://www.w3.org/2000/svg">
<path d="M18.8074 36.0123C18.5145 39.7011 21.7551 42.4181 23.9667 42.4181C26.1814 42.3148 34.8069 35.0461 34.8069 35.0461C38.8636 29.9155 38.8812 27.6341 38.8812 25.841C38.5428 17.9246 24.12 29.9821 18.8074 36.0123V36.0123ZM54.4859 32.9481C56.4437 28.8047 53.8097 24.2026 48.0804 28.2448C43.5277 31.1385 37.6336 37.0913 34.8127 39.4216C33.5043 42.0643 36.821 49.3168 42.0769 45.4875C48.2893 40.974 52.8259 36.7299 54.4859 32.9481V32.9481ZM59.8179 7.88291L61.0796 0H75V14.3897L69.8984 14.4507L63.7556 35.2564C64.1379 42.5994 60.4143 42.7189 59.9386 46.0882C58.7432 54.5565 49.2731 61.4855 45.6524 61.4855C43.2376 61.4155 41.4724 58.6478 40.8794 56.2361C47.688 48.7053 56.8438 42.7872 56.8438 42.7872C57.4156 38.8267 56.159 37.5658 60.3848 34.1909L64.4172 12.9891C60.9734 10.7149 59.3665 10.7502 59.8179 7.88291V7.88291ZM32.647 42.9952C36.1775 50.1091 41.2789 50.2945 49.188 41.2376C49.3759 42.0749 49.5817 42.9521 49.2041 45.0586C33.1148 59.4491 17.961 73.4546 13.3484 75H0V71.4199C2.1709 68.4094 19.9875 53.7142 32.647 42.9952V42.9952ZM56.4255 56.7691C55.7011 62.9268 50.0871 68.315 42.5854 75H18.8104L38.8535 58.1169C42.3135 65.9912 48.4591 64.8505 56.4256 56.7691H56.4255ZM28.3096 42.7925L0 66.922V51.2672L16.6597 37.7051C17.5509 42.7531 23.0105 47.1981 28.3096 42.7928V42.7925Z" fill="black"/>
</svg>
