<svg width="75" height="46" viewBox="0 0 75 46" fill="none" xmlns="http://www.w3.org/2000/svg">
<path d="M61.875 13.2067C59.0627 12.2382 56.5803 10.4966 54.7125 8.18175C52.6539 5.60262 50.0327 3.52851 47.0494 2.11809C44.066 0.707662 40.7996 -0.00170558 37.5 0.0442486C33.0614 -0.270093 28.6672 1.09892 25.1925 3.87865C21.7179 6.65838 19.4177 10.6449 18.75 15.0442C20.065 12.8439 22.0442 11.1175 24.4027 10.1134C26.7612 9.10939 29.3775 8.87946 31.875 9.45675C34.6826 10.4535 37.1609 12.2052 39.0375 14.5192C41.1074 17.0778 43.7336 19.1305 46.7163 20.5211C49.699 21.9117 52.9596 22.6037 56.25 22.5442C60.6886 22.8586 65.0828 21.4896 68.5575 18.7098C72.0321 15.9301 74.3323 11.9436 75 7.54425C73.7088 9.77089 71.736 11.5234 69.3726 12.543C67.0093 13.5626 64.3807 13.7953 61.875 13.2067ZM13.125 31.8817C15.9373 32.8503 18.4197 34.5919 20.2875 36.9067C22.3461 39.4859 24.9673 41.56 27.9506 42.9704C30.934 44.3808 34.2004 45.0902 37.5 45.0442C41.9386 45.3586 46.3328 43.9896 49.8075 41.2098C53.2821 38.4301 55.5823 34.4436 56.25 30.0442C54.935 32.2446 52.9558 33.971 50.5973 34.9751C48.2388 35.9791 45.6225 36.209 43.125 35.6317C40.3174 34.635 37.8391 32.8833 35.9625 30.5693C33.8871 28.0171 31.2598 25.9689 28.2784 24.5789C25.297 23.1888 22.0391 22.4932 18.75 22.5442C14.3114 22.2299 9.91719 23.5989 6.44252 26.3786C2.96785 29.1584 0.667658 33.1449 0 37.5442C1.29115 35.3176 3.26403 33.5651 5.62738 32.5455C7.99072 31.5259 10.6193 31.2932 13.125 31.8817Z" fill="black"/>
</svg>
