<svg width="22" height="18" viewBox="0 0 22 18" fill="none" xmlns="http://www.w3.org/2000/svg">
<path d="M18.9676 5.14806V5.6886C18.9676 11.1318 14.8378 17.3697 7.28108 17.3697C5.05024 17.3745 2.86677 16.7262 1 15.5048C1.3242 15.5488 1.65123 15.5687 1.97838 15.5643C3.82757 15.5694 5.62477 14.9525 7.08108 13.8129C6.22199 13.8003 5.38874 13.5171 4.69976 13.0038C4.01078 12.4905 3.50113 11.773 3.24324 10.9535C3.49914 11.0077 3.76004 11.0349 4.02162 11.0345C4.3869 11.0346 4.75052 10.9855 5.1027 10.8886C4.17221 10.7031 3.33509 10.2 2.73459 9.46542C2.13409 8.73082 1.80754 7.81037 1.81081 6.86157V6.80752C2.38011 7.12553 3.01836 7.29994 3.67027 7.31563C2.80248 6.74458 2.1855 5.86373 1.94539 4.85304C1.70527 3.84235 1.86015 2.77812 2.37838 1.87779C3.41095 3.14779 4.69924 4.18626 6.15948 4.92569C7.61973 5.66513 9.21925 6.08898 10.8541 6.16968C10.7731 5.86288 10.7349 5.54638 10.7405 5.22914C10.7101 4.39071 10.9388 3.56328 11.3955 2.8595C11.8522 2.15572 12.5147 1.6098 13.2929 1.29607C14.071 0.982343 14.9269 0.916054 15.744 1.10623C16.5612 1.29641 17.2998 1.73381 17.8595 2.35887C18.7793 2.17323 19.6617 1.83525 20.4703 1.35887C20.1637 2.32718 19.5114 3.14877 18.6378 3.66698C19.4538 3.55454 20.2494 3.32516 21 2.9859C20.456 3.82138 19.7678 4.55349 18.9676 5.14806V5.14806Z" stroke="#EF9273" stroke-linecap="round" stroke-linejoin="round"/>
</svg>
